<?xml version="1.0" encoding="utf-8"?>
<svg xmlns="http://www.w3.org/2000/svg" xmlns:xlink="http://www.w3.org/1999/xlink" width="600" height="400" viewBox="0 0 2400 1600">
<defs>
  <clipPath id="clip750">
    <rect x="0" y="0" width="2400" height="1600"/>
  </clipPath>
</defs>
<path clip-path="url(#clip750)" d="M0 1600 L2400 1600 L2400 0 L0 0  Z" fill="#ffffff" fill-rule="evenodd" fill-opacity="1"/>
<defs>
  <clipPath id="clip751">
    <rect x="480" y="0" width="1681" height="1600"/>
  </clipPath>
</defs>
<path clip-path="url(#clip750)" d="M192.339 1486.45 L2352.76 1486.45 L2352.76 47.2441 L192.339 47.2441  Z" fill="#ffffff" fill-rule="evenodd" fill-opacity="1"/>
<defs>
  <clipPath id="clip752">
    <rect x="192" y="47" width="2161" height="1440"/>
  </clipPath>
</defs>
<polyline clip-path="url(#clip752)" style="stroke:#000000; stroke-linecap:round; stroke-linejoin:round; stroke-width:2; stroke-opacity:0.1; fill:none" points="253.483,1486.45 253.483,47.2441 "/>
<polyline clip-path="url(#clip752)" style="stroke:#000000; stroke-linecap:round; stroke-linejoin:round; stroke-width:2; stroke-opacity:0.1; fill:none" points="835.805,1486.45 835.805,47.2441 "/>
<polyline clip-path="url(#clip752)" style="stroke:#000000; stroke-linecap:round; stroke-linejoin:round; stroke-width:2; stroke-opacity:0.1; fill:none" points="1418.13,1486.45 1418.13,47.2441 "/>
<polyline clip-path="url(#clip752)" style="stroke:#000000; stroke-linecap:round; stroke-linejoin:round; stroke-width:2; stroke-opacity:0.1; fill:none" points="2000.45,1486.45 2000.45,47.2441 "/>
<polyline clip-path="url(#clip750)" style="stroke:#000000; stroke-linecap:round; stroke-linejoin:round; stroke-width:4; stroke-opacity:1; fill:none" points="192.339,1486.45 2352.76,1486.45 "/>
<polyline clip-path="url(#clip750)" style="stroke:#000000; stroke-linecap:round; stroke-linejoin:round; stroke-width:4; stroke-opacity:1; fill:none" points="253.483,1486.45 253.483,1467.55 "/>
<polyline clip-path="url(#clip750)" style="stroke:#000000; stroke-linecap:round; stroke-linejoin:round; stroke-width:4; stroke-opacity:1; fill:none" points="835.805,1486.45 835.805,1467.55 "/>
<polyline clip-path="url(#clip750)" style="stroke:#000000; stroke-linecap:round; stroke-linejoin:round; stroke-width:4; stroke-opacity:1; fill:none" points="1418.13,1486.45 1418.13,1467.55 "/>
<polyline clip-path="url(#clip750)" style="stroke:#000000; stroke-linecap:round; stroke-linejoin:round; stroke-width:4; stroke-opacity:1; fill:none" points="2000.45,1486.45 2000.45,1467.55 "/>
<path clip-path="url(#clip750)" d="M253.483 1517.37 Q249.872 1517.37 248.043 1520.93 Q246.237 1524.47 246.237 1531.6 Q246.237 1538.71 248.043 1542.27 Q249.872 1545.82 253.483 1545.82 Q257.117 1545.82 258.922 1542.27 Q260.751 1538.71 260.751 1531.6 Q260.751 1524.47 258.922 1520.93 Q257.117 1517.37 253.483 1517.37 M253.483 1513.66 Q259.293 1513.66 262.348 1518.27 Q265.427 1522.85 265.427 1531.6 Q265.427 1540.33 262.348 1544.94 Q259.293 1549.52 253.483 1549.52 Q247.673 1549.52 244.594 1544.94 Q241.538 1540.33 241.538 1531.6 Q241.538 1522.85 244.594 1518.27 Q247.673 1513.66 253.483 1513.66 Z" fill="#000000" fill-rule="evenodd" fill-opacity="1" /><path clip-path="url(#clip750)" d="M830.458 1544.91 L846.778 1544.91 L846.778 1548.85 L824.833 1548.85 L824.833 1544.91 Q827.495 1542.16 832.079 1537.53 Q836.685 1532.88 837.866 1531.53 Q840.111 1529.01 840.99 1527.27 Q841.893 1525.51 841.893 1523.82 Q841.893 1521.07 839.949 1519.33 Q838.028 1517.6 834.926 1517.6 Q832.727 1517.6 830.273 1518.36 Q827.842 1519.13 825.065 1520.68 L825.065 1515.95 Q827.889 1514.82 830.342 1514.24 Q832.796 1513.66 834.833 1513.66 Q840.203 1513.66 843.398 1516.35 Q846.592 1519.03 846.592 1523.52 Q846.592 1525.65 845.782 1527.57 Q844.995 1529.47 842.889 1532.07 Q842.31 1532.74 839.208 1535.95 Q836.106 1539.15 830.458 1544.91 Z" fill="#000000" fill-rule="evenodd" fill-opacity="1" /><path clip-path="url(#clip750)" d="M1421.14 1518.36 L1409.33 1536.81 L1421.14 1536.81 L1421.14 1518.36 M1419.91 1514.29 L1425.79 1514.29 L1425.79 1536.81 L1430.72 1536.81 L1430.72 1540.7 L1425.79 1540.7 L1425.79 1548.85 L1421.14 1548.85 L1421.14 1540.7 L1405.54 1540.7 L1405.54 1536.19 L1419.91 1514.29 Z" fill="#000000" fill-rule="evenodd" fill-opacity="1" /><path clip-path="url(#clip750)" d="M2000.86 1529.7 Q1997.71 1529.7 1995.86 1531.86 Q1994.03 1534.01 1994.03 1537.76 Q1994.03 1541.49 1995.86 1543.66 Q1997.71 1545.82 2000.86 1545.82 Q2004 1545.82 2005.83 1543.66 Q2007.68 1541.49 2007.68 1537.76 Q2007.68 1534.01 2005.83 1531.86 Q2004 1529.7 2000.86 1529.7 M2010.14 1515.05 L2010.14 1519.31 Q2008.38 1518.48 2006.57 1518.04 Q2004.79 1517.6 2003.03 1517.6 Q1998.4 1517.6 1995.95 1520.72 Q1993.52 1523.85 1993.17 1530.17 Q1994.54 1528.15 1996.6 1527.09 Q1998.66 1526 2001.13 1526 Q2006.34 1526 2009.35 1529.17 Q2012.38 1532.32 2012.38 1537.76 Q2012.38 1543.08 2009.24 1546.3 Q2006.09 1549.52 2000.86 1549.52 Q1994.86 1549.52 1991.69 1544.94 Q1988.52 1540.33 1988.52 1531.6 Q1988.52 1523.41 1992.41 1518.55 Q1996.3 1513.66 2002.85 1513.66 Q2004.61 1513.66 2006.39 1514.01 Q2008.19 1514.36 2010.14 1515.05 Z" fill="#000000" fill-rule="evenodd" fill-opacity="1" /><polyline clip-path="url(#clip752)" style="stroke:#000000; stroke-linecap:round; stroke-linejoin:round; stroke-width:2; stroke-opacity:0.1; fill:none" points="192.339,1318.78 2352.76,1318.78 "/>
<polyline clip-path="url(#clip752)" style="stroke:#000000; stroke-linecap:round; stroke-linejoin:round; stroke-width:2; stroke-opacity:0.1; fill:none" points="192.339,1113.65 2352.76,1113.65 "/>
<polyline clip-path="url(#clip752)" style="stroke:#000000; stroke-linecap:round; stroke-linejoin:round; stroke-width:2; stroke-opacity:0.1; fill:none" points="192.339,908.514 2352.76,908.514 "/>
<polyline clip-path="url(#clip752)" style="stroke:#000000; stroke-linecap:round; stroke-linejoin:round; stroke-width:2; stroke-opacity:0.1; fill:none" points="192.339,703.38 2352.76,703.38 "/>
<polyline clip-path="url(#clip752)" style="stroke:#000000; stroke-linecap:round; stroke-linejoin:round; stroke-width:2; stroke-opacity:0.1; fill:none" points="192.339,498.245 2352.76,498.245 "/>
<polyline clip-path="url(#clip752)" style="stroke:#000000; stroke-linecap:round; stroke-linejoin:round; stroke-width:2; stroke-opacity:0.1; fill:none" points="192.339,293.111 2352.76,293.111 "/>
<polyline clip-path="url(#clip752)" style="stroke:#000000; stroke-linecap:round; stroke-linejoin:round; stroke-width:2; stroke-opacity:0.1; fill:none" points="192.339,87.9763 2352.76,87.9763 "/>
<polyline clip-path="url(#clip750)" style="stroke:#000000; stroke-linecap:round; stroke-linejoin:round; stroke-width:4; stroke-opacity:1; fill:none" points="192.339,1486.45 192.339,47.2441 "/>
<polyline clip-path="url(#clip750)" style="stroke:#000000; stroke-linecap:round; stroke-linejoin:round; stroke-width:4; stroke-opacity:1; fill:none" points="192.339,1318.78 211.236,1318.78 "/>
<polyline clip-path="url(#clip750)" style="stroke:#000000; stroke-linecap:round; stroke-linejoin:round; stroke-width:4; stroke-opacity:1; fill:none" points="192.339,1113.65 211.236,1113.65 "/>
<polyline clip-path="url(#clip750)" style="stroke:#000000; stroke-linecap:round; stroke-linejoin:round; stroke-width:4; stroke-opacity:1; fill:none" points="192.339,908.514 211.236,908.514 "/>
<polyline clip-path="url(#clip750)" style="stroke:#000000; stroke-linecap:round; stroke-linejoin:round; stroke-width:4; stroke-opacity:1; fill:none" points="192.339,703.38 211.236,703.38 "/>
<polyline clip-path="url(#clip750)" style="stroke:#000000; stroke-linecap:round; stroke-linejoin:round; stroke-width:4; stroke-opacity:1; fill:none" points="192.339,498.245 211.236,498.245 "/>
<polyline clip-path="url(#clip750)" style="stroke:#000000; stroke-linecap:round; stroke-linejoin:round; stroke-width:4; stroke-opacity:1; fill:none" points="192.339,293.111 211.236,293.111 "/>
<polyline clip-path="url(#clip750)" style="stroke:#000000; stroke-linecap:round; stroke-linejoin:round; stroke-width:4; stroke-opacity:1; fill:none" points="192.339,87.9763 211.236,87.9763 "/>
<path clip-path="url(#clip750)" d="M50.9921 1319.23 L80.6679 1319.23 L80.6679 1323.17 L50.9921 1323.17 L50.9921 1319.23 Z" fill="#000000" fill-rule="evenodd" fill-opacity="1" /><path clip-path="url(#clip750)" d="M100.76 1304.58 Q97.1493 1304.58 95.3206 1308.15 Q93.515 1311.69 93.515 1318.82 Q93.515 1325.92 95.3206 1329.49 Q97.1493 1333.03 100.76 1333.03 Q104.395 1333.03 106.2 1329.49 Q108.029 1325.92 108.029 1318.82 Q108.029 1311.69 106.2 1308.15 Q104.395 1304.58 100.76 1304.58 M100.76 1300.88 Q106.571 1300.88 109.626 1305.48 Q112.705 1310.07 112.705 1318.82 Q112.705 1327.54 109.626 1332.15 Q106.571 1336.73 100.76 1336.73 Q94.9502 1336.73 91.8715 1332.15 Q88.816 1327.54 88.816 1318.82 Q88.816 1310.07 91.8715 1305.48 Q94.9502 1300.88 100.76 1300.88 Z" fill="#000000" fill-rule="evenodd" fill-opacity="1" /><path clip-path="url(#clip750)" d="M120.922 1330.18 L125.807 1330.18 L125.807 1336.06 L120.922 1336.06 L120.922 1330.18 Z" fill="#000000" fill-rule="evenodd" fill-opacity="1" /><path clip-path="url(#clip750)" d="M140.019 1332.13 L156.339 1332.13 L156.339 1336.06 L134.394 1336.06 L134.394 1332.13 Q137.056 1329.37 141.64 1324.74 Q146.246 1320.09 147.427 1318.75 Q149.672 1316.23 150.552 1314.49 Q151.455 1312.73 151.455 1311.04 Q151.455 1308.29 149.51 1306.55 Q147.589 1304.81 144.487 1304.81 Q142.288 1304.81 139.834 1305.58 Q137.404 1306.34 134.626 1307.89 L134.626 1303.17 Q137.45 1302.04 139.904 1301.46 Q142.357 1300.88 144.394 1300.88 Q149.765 1300.88 152.959 1303.56 Q156.154 1306.25 156.154 1310.74 Q156.154 1312.87 155.343 1314.79 Q154.556 1316.69 152.45 1319.28 Q151.871 1319.95 148.769 1323.17 Q145.668 1326.36 140.019 1332.13 Z" fill="#000000" fill-rule="evenodd" fill-opacity="1" /><path clip-path="url(#clip750)" d="M99.1632 1099.45 Q95.5521 1099.45 93.7234 1103.01 Q91.9178 1106.55 91.9178 1113.68 Q91.9178 1120.79 93.7234 1124.35 Q95.5521 1127.9 99.1632 1127.9 Q102.797 1127.9 104.603 1124.35 Q106.432 1120.79 106.432 1113.68 Q106.432 1106.55 104.603 1103.01 Q102.797 1099.45 99.1632 1099.45 M99.1632 1095.74 Q104.973 1095.74 108.029 1100.35 Q111.108 1104.93 111.108 1113.68 Q111.108 1122.41 108.029 1127.02 Q104.973 1131.6 99.1632 1131.6 Q93.353 1131.6 90.2743 1127.02 Q87.2188 1122.41 87.2188 1113.68 Q87.2188 1104.93 90.2743 1100.35 Q93.353 1095.74 99.1632 1095.74 Z" fill="#000000" fill-rule="evenodd" fill-opacity="1" /><path clip-path="url(#clip750)" d="M119.325 1125.05 L124.209 1125.05 L124.209 1130.93 L119.325 1130.93 L119.325 1125.05 Z" fill="#000000" fill-rule="evenodd" fill-opacity="1" /><path clip-path="url(#clip750)" d="M144.394 1099.45 Q140.783 1099.45 138.955 1103.01 Q137.149 1106.55 137.149 1113.68 Q137.149 1120.79 138.955 1124.35 Q140.783 1127.9 144.394 1127.9 Q148.029 1127.9 149.834 1124.35 Q151.663 1120.79 151.663 1113.68 Q151.663 1106.55 149.834 1103.01 Q148.029 1099.45 144.394 1099.45 M144.394 1095.74 Q150.205 1095.74 153.26 1100.35 Q156.339 1104.93 156.339 1113.68 Q156.339 1122.41 153.26 1127.02 Q150.205 1131.6 144.394 1131.6 Q138.584 1131.6 135.506 1127.02 Q132.45 1122.41 132.45 1113.68 Q132.45 1104.93 135.506 1100.35 Q138.584 1095.74 144.394 1095.74 Z" fill="#000000" fill-rule="evenodd" fill-opacity="1" /><path clip-path="url(#clip750)" d="M100.76 894.313 Q97.1493 894.313 95.3206 897.878 Q93.515 901.419 93.515 908.549 Q93.515 915.655 95.3206 919.22 Q97.1493 922.762 100.76 922.762 Q104.395 922.762 106.2 919.22 Q108.029 915.655 108.029 908.549 Q108.029 901.419 106.2 897.878 Q104.395 894.313 100.76 894.313 M100.76 890.609 Q106.571 890.609 109.626 895.216 Q112.705 899.799 112.705 908.549 Q112.705 917.276 109.626 921.882 Q106.571 926.466 100.76 926.466 Q94.9502 926.466 91.8715 921.882 Q88.816 917.276 88.816 908.549 Q88.816 899.799 91.8715 895.216 Q94.9502 890.609 100.76 890.609 Z" fill="#000000" fill-rule="evenodd" fill-opacity="1" /><path clip-path="url(#clip750)" d="M120.922 919.915 L125.807 919.915 L125.807 925.794 L120.922 925.794 L120.922 919.915 Z" fill="#000000" fill-rule="evenodd" fill-opacity="1" /><path clip-path="url(#clip750)" d="M140.019 921.859 L156.339 921.859 L156.339 925.794 L134.394 925.794 L134.394 921.859 Q137.056 919.105 141.64 914.475 Q146.246 909.822 147.427 908.48 Q149.672 905.956 150.552 904.22 Q151.455 902.461 151.455 900.771 Q151.455 898.017 149.51 896.281 Q147.589 894.544 144.487 894.544 Q142.288 894.544 139.834 895.308 Q137.404 896.072 134.626 897.623 L134.626 892.901 Q137.45 891.767 139.904 891.188 Q142.357 890.609 144.394 890.609 Q149.765 890.609 152.959 893.294 Q156.154 895.98 156.154 900.47 Q156.154 902.6 155.343 904.521 Q154.556 906.419 152.45 909.012 Q151.871 909.683 148.769 912.901 Q145.668 916.095 140.019 921.859 Z" fill="#000000" fill-rule="evenodd" fill-opacity="1" /><path clip-path="url(#clip750)" d="M98.6771 689.178 Q95.066 689.178 93.2373 692.743 Q91.4317 696.285 91.4317 703.415 Q91.4317 710.521 93.2373 714.086 Q95.066 717.627 98.6771 717.627 Q102.311 717.627 104.117 714.086 Q105.946 710.521 105.946 703.415 Q105.946 696.285 104.117 692.743 Q102.311 689.178 98.6771 689.178 M98.6771 685.475 Q104.487 685.475 107.543 690.081 Q110.621 694.665 110.621 703.415 Q110.621 712.141 107.543 716.748 Q104.487 721.331 98.6771 721.331 Q92.8669 721.331 89.7882 716.748 Q86.7327 712.141 86.7327 703.415 Q86.7327 694.665 89.7882 690.081 Q92.8669 685.475 98.6771 685.475 Z" fill="#000000" fill-rule="evenodd" fill-opacity="1" /><path clip-path="url(#clip750)" d="M118.839 714.78 L123.723 714.78 L123.723 720.66 L118.839 720.66 L118.839 714.78 Z" fill="#000000" fill-rule="evenodd" fill-opacity="1" /><path clip-path="url(#clip750)" d="M146.756 690.174 L134.95 708.623 L146.756 708.623 L146.756 690.174 M145.529 686.1 L151.408 686.1 L151.408 708.623 L156.339 708.623 L156.339 712.512 L151.408 712.512 L151.408 720.66 L146.756 720.66 L146.756 712.512 L131.154 712.512 L131.154 707.998 L145.529 686.1 Z" fill="#000000" fill-rule="evenodd" fill-opacity="1" /><path clip-path="url(#clip750)" d="M99.0011 484.044 Q95.39 484.044 93.5613 487.609 Q91.7558 491.15 91.7558 498.28 Q91.7558 505.386 93.5613 508.951 Q95.39 512.493 99.0011 512.493 Q102.635 512.493 104.441 508.951 Q106.27 505.386 106.27 498.28 Q106.27 491.15 104.441 487.609 Q102.635 484.044 99.0011 484.044 M99.0011 480.34 Q104.811 480.34 107.867 484.947 Q110.946 489.53 110.946 498.28 Q110.946 507.007 107.867 511.613 Q104.811 516.197 99.0011 516.197 Q93.191 516.197 90.1123 511.613 Q87.0567 507.007 87.0567 498.28 Q87.0567 489.53 90.1123 484.947 Q93.191 480.34 99.0011 480.34 Z" fill="#000000" fill-rule="evenodd" fill-opacity="1" /><path clip-path="url(#clip750)" d="M119.163 509.646 L124.047 509.646 L124.047 515.525 L119.163 515.525 L119.163 509.646 Z" fill="#000000" fill-rule="evenodd" fill-opacity="1" /><path clip-path="url(#clip750)" d="M144.811 496.382 Q141.663 496.382 139.811 498.535 Q137.982 500.687 137.982 504.437 Q137.982 508.164 139.811 510.34 Q141.663 512.493 144.811 512.493 Q147.959 512.493 149.788 510.34 Q151.64 508.164 151.64 504.437 Q151.64 500.687 149.788 498.535 Q147.959 496.382 144.811 496.382 M154.093 481.729 L154.093 485.988 Q152.334 485.155 150.529 484.715 Q148.746 484.275 146.987 484.275 Q142.357 484.275 139.904 487.4 Q137.473 490.525 137.126 496.845 Q138.492 494.831 140.552 493.766 Q142.612 492.678 145.089 492.678 Q150.297 492.678 153.306 495.849 Q156.339 498.998 156.339 504.437 Q156.339 509.761 153.191 512.979 Q150.043 516.197 144.811 516.197 Q138.816 516.197 135.644 511.613 Q132.473 507.007 132.473 498.28 Q132.473 490.086 136.362 485.225 Q140.251 480.34 146.802 480.34 Q148.561 480.34 150.343 480.688 Q152.149 481.035 154.093 481.729 Z" fill="#000000" fill-rule="evenodd" fill-opacity="1" /><path clip-path="url(#clip750)" d="M99.2558 278.909 Q95.6447 278.909 93.816 282.474 Q92.0104 286.016 92.0104 293.146 Q92.0104 300.252 93.816 303.817 Q95.6447 307.358 99.2558 307.358 Q102.89 307.358 104.696 303.817 Q106.524 300.252 106.524 293.146 Q106.524 286.016 104.696 282.474 Q102.89 278.909 99.2558 278.909 M99.2558 275.206 Q105.066 275.206 108.121 279.812 Q111.2 284.396 111.2 293.146 Q111.2 301.872 108.121 306.479 Q105.066 311.062 99.2558 311.062 Q93.4456 311.062 90.3669 306.479 Q87.3114 301.872 87.3114 293.146 Q87.3114 284.396 90.3669 279.812 Q93.4456 275.206 99.2558 275.206 Z" fill="#000000" fill-rule="evenodd" fill-opacity="1" /><path clip-path="url(#clip750)" d="M119.418 304.511 L124.302 304.511 L124.302 310.391 L119.418 310.391 L119.418 304.511 Z" fill="#000000" fill-rule="evenodd" fill-opacity="1" /><path clip-path="url(#clip750)" d="M144.487 293.979 Q141.154 293.979 139.232 295.761 Q137.334 297.544 137.334 300.669 Q137.334 303.794 139.232 305.576 Q141.154 307.358 144.487 307.358 Q147.82 307.358 149.742 305.576 Q151.663 303.77 151.663 300.669 Q151.663 297.544 149.742 295.761 Q147.843 293.979 144.487 293.979 M139.811 291.988 Q136.802 291.247 135.112 289.187 Q133.445 287.127 133.445 284.164 Q133.445 280.021 136.385 277.613 Q139.348 275.206 144.487 275.206 Q149.649 275.206 152.589 277.613 Q155.529 280.021 155.529 284.164 Q155.529 287.127 153.839 289.187 Q152.172 291.247 149.186 291.988 Q152.566 292.775 154.441 295.067 Q156.339 297.358 156.339 300.669 Q156.339 305.692 153.26 308.377 Q150.205 311.062 144.487 311.062 Q138.769 311.062 135.691 308.377 Q132.635 305.692 132.635 300.669 Q132.635 297.358 134.533 295.067 Q136.431 292.775 139.811 291.988 M138.098 284.604 Q138.098 287.289 139.765 288.794 Q141.455 290.298 144.487 290.298 Q147.496 290.298 149.186 288.794 Q150.899 287.289 150.899 284.604 Q150.899 281.919 149.186 280.414 Q147.496 278.909 144.487 278.909 Q141.455 278.909 139.765 280.414 Q138.098 281.919 138.098 284.604 Z" fill="#000000" fill-rule="evenodd" fill-opacity="1" /><path clip-path="url(#clip750)" d="M89.9734 101.321 L97.6122 101.321 L97.6122 74.9555 L89.3021 76.6222 L89.3021 72.3629 L97.566 70.6963 L102.242 70.6963 L102.242 101.321 L109.881 101.321 L109.881 105.256 L89.9734 105.256 L89.9734 101.321 Z" fill="#000000" fill-rule="evenodd" fill-opacity="1" /><path clip-path="url(#clip750)" d="M119.325 99.3767 L124.209 99.3767 L124.209 105.256 L119.325 105.256 L119.325 99.3767 Z" fill="#000000" fill-rule="evenodd" fill-opacity="1" /><path clip-path="url(#clip750)" d="M144.394 73.775 Q140.783 73.775 138.955 77.3398 Q137.149 80.8814 137.149 88.011 Q137.149 95.1174 138.955 98.6822 Q140.783 102.224 144.394 102.224 Q148.029 102.224 149.834 98.6822 Q151.663 95.1174 151.663 88.011 Q151.663 80.8814 149.834 77.3398 Q148.029 73.775 144.394 73.775 M144.394 70.0713 Q150.205 70.0713 153.26 74.6777 Q156.339 79.261 156.339 88.011 Q156.339 96.7378 153.26 101.344 Q150.205 105.928 144.394 105.928 Q138.584 105.928 135.506 101.344 Q132.45 96.7378 132.45 88.011 Q132.45 79.261 135.506 74.6777 Q138.584 70.0713 144.394 70.0713 Z" fill="#000000" fill-rule="evenodd" fill-opacity="1" /><polyline clip-path="url(#clip752)" style="stroke:#009af9; stroke-linecap:round; stroke-linejoin:round; stroke-width:4; stroke-opacity:1; fill:none" points="253.483,87.9763 255.523,87.9763 257.563,87.9763 259.603,87.9763 261.643,87.9763 263.684,87.9763 265.724,87.9763 267.764,87.9763 269.804,87.9763 271.844,87.9763 273.884,87.9763 275.925,87.9763 277.965,87.9763 280.005,87.9763 282.045,87.9763 284.085,87.9763 286.125,87.9763 288.166,87.9763 290.206,87.9763 292.246,87.9763 294.286,87.9763 296.326,87.9763 298.366,87.9763 300.407,87.9763 302.447,87.9763 304.487,87.9763 306.527,87.9763 308.567,87.9763 310.607,87.9763 312.648,87.9763 314.688,87.9763 316.728,87.9763 318.768,87.9763 320.808,87.9763 322.848,87.9764 324.889,87.9764 326.929,87.9764 328.969,87.9765 331.009,87.9766 333.049,87.9766 335.089,87.9768 337.13,87.9769 339.17,87.977 341.21,87.9772 343.25,87.9775 345.29,87.9778 347.33,87.9781 349.371,87.9786 351.411,87.9791 353.451,87.9797 355.491,87.9805 357.531,87.9813 359.571,87.9824 361.612,87.9836 363.652,87.9851 365.692,87.9867 367.732,87.9887 369.772,87.991 371.812,87.9937 373.853,87.9968 375.893,88.0003 377.933,88.0044 379.973,88.0091 382.013,88.0145 384.054,88.0206 386.094,88.0276 388.134,88.0356 390.174,88.0446 392.214,88.0548 394.254,88.0663 396.295,88.0792 398.335,88.0938 400.375,88.1101 402.415,88.1284 404.455,88.1488 406.495,88.1717 408.536,88.1971 410.576,88.2253 412.616,88.2566 414.656,88.2914 416.696,88.3298 418.736,88.3722 420.777,88.4189 422.817,88.4704 424.857,88.527 426.897,88.589 428.937,88.6571 430.977,88.7316 433.018,88.813 435.058,88.9018 437.098,88.9987 439.138,89.1041 441.178,89.2187 443.218,89.3432 445.259,89.4781 447.299,89.6243 449.339,89.7825 451.379,89.9533 453.419,90.1378 455.459,90.3366 457.5,90.5507 459.54,90.781 461.58,91.0285 463.62,91.2942 465.66,91.579 467.7,91.8841 469.741,92.2105 471.781,92.5595 473.821,92.9321 475.861,93.3296 477.901,93.7534 479.941,94.2045 481.982,94.6844 484.022,95.1945 486.062,95.7361 488.102,96.3107 490.142,96.9197 492.182,97.5646 494.223,98.2469 496.263,98.9682 498.303,99.7301 500.343,100.534 502.383,101.382 504.424,102.275 506.464,103.215 508.504,104.205 510.544,105.244 512.584,106.336 514.624,107.481 516.665,108.683 518.705,109.941 520.745,111.259 522.785,112.637 524.825,114.078 526.865,115.583 528.906,117.154 530.946,118.792 532.986,120.5 535.026,122.279 537.066,124.13 539.106,126.055 541.147,128.056 543.187,130.134 545.227,132.291 547.267,134.528 549.307,136.846 551.347,139.246 553.388,141.731 555.428,144.301 557.468,146.957 559.508,149.7 561.548,152.532 563.588,155.453 565.629,158.463 567.669,161.565 569.709,164.758 571.749,168.042 573.789,171.419 575.829,174.888 577.87,178.451 579.91,182.106 581.95,185.854 583.99,189.695 586.03,193.628 588.07,197.654 590.111,201.772 592.151,205.98 594.191,210.279 596.231,214.667 598.271,219.144 600.311,223.708 602.352,228.359 604.392,233.094 606.432,237.912 608.472,242.811 610.512,247.79 612.553,252.847 614.593,257.979 616.633,263.184 618.673,268.46 620.713,273.805 622.753,279.216 624.794,284.689 626.834,290.223 628.874,295.813 630.914,301.458 632.954,307.153 634.994,312.895 637.035,318.682 639.075,324.508 641.115,330.371 643.155,336.267 645.195,342.192 647.235,348.141 649.276,354.111 651.316,360.098 653.356,366.098 655.396,372.105 657.436,378.117 659.476,384.128 661.517,390.134 663.557,396.131 665.597,402.115 667.637,408.08 669.677,414.022 671.717,419.937 673.758,425.821 675.798,431.668 677.838,437.475 679.878,443.237 681.918,448.95 683.958,454.609 685.999,460.21 688.039,465.75 690.079,471.223 692.119,476.626 694.159,481.956 696.199,487.207 698.24,492.377 700.28,497.463 702.32,502.46 704.36,507.365 706.4,512.175 708.44,516.888 710.481,521.5 712.521,526.009 714.561,530.413 716.601,534.709 718.641,538.895 720.681,542.969 722.722,546.93 724.762,550.776 726.802,554.506 728.842,558.119 730.882,561.615 732.923,564.992 734.963,568.251 737.003,571.392 739.043,574.414 741.083,577.318 743.123,580.106 745.164,582.778 747.204,585.334 749.244,587.778 751.284,590.11 753.324,592.333 755.364,594.448 757.405,596.459 759.445,598.368 761.485,600.178 763.525,601.892 765.565,603.515 767.605,605.049 769.646,606.499 771.686,607.868 773.726,609.163 775.766,610.386 777.806,611.543 779.846,612.64 781.887,613.681 783.927,614.671 785.967,615.618 788.007,616.525 790.047,617.4 792.087,618.249 794.128,619.078 796.168,619.892 798.208,620.7 800.248,621.507 802.288,622.321 804.328,623.147 806.369,623.994 808.409,624.868 810.449,625.776 812.489,626.725 814.529,627.722 816.569,628.775 818.61,629.89 820.65,631.074 822.69,632.336 824.73,633.68 826.77,635.116 828.81,636.648 830.851,638.285 832.891,640.032 834.931,641.897 836.971,643.885 839.011,646.003 841.051,648.257 843.092,650.654 845.132,653.198 847.172,655.895 849.212,658.751 851.252,661.771 853.293,664.96 855.333,668.321 857.373,671.861 859.413,675.582 861.453,679.489 863.493,683.585 865.534,687.873 867.574,692.357 869.614,697.038 871.654,701.92 873.694,707.005 875.734,712.293 877.775,717.786 879.815,723.486 881.855,729.392 883.895,735.505 885.935,741.826 887.975,748.353 890.016,755.085 892.056,762.022 894.096,769.162 896.136,776.503 898.176,784.042 900.216,791.778 902.257,799.707 904.297,807.826 906.337,816.131 908.377,824.617 910.417,833.282 912.457,842.119 914.498,851.125 916.538,860.293 918.578,869.618 920.618,879.094 922.658,888.714 924.698,898.473 926.739,908.363 928.779,918.378 930.819,928.509 932.859,938.749 934.899,949.092 936.939,959.527 938.98,970.048 941.02,980.646 943.06,991.312 945.1,1002.04 947.14,1012.82 949.18,1023.63 951.221,1034.49 953.261,1045.36 955.301,1056.25 957.341,1067.14 959.381,1078.03 961.421,1088.91 963.462,1099.76 965.502,1110.58 967.542,1121.36 969.582,1132.08 971.622,1142.75 973.663,1153.34 975.703,1163.86 977.743,1174.28 979.783,1184.61 981.823,1194.83 983.863,1204.94 985.904,1214.93 987.944,1224.78 989.984,1234.49 992.024,1244.05 994.064,1253.46 996.104,1262.7 998.145,1271.77 1000.18,1280.66 1002.22,1289.37 1004.27,1297.89 1006.31,1306.2 1008.35,1314.31 1010.39,1322.22 1012.43,1329.9 1014.47,1337.37 1016.51,1344.61 1018.55,1351.61 1020.59,1358.39 1022.63,1364.92 1024.67,1371.21 1026.71,1377.26 1028.75,1383.06 1030.79,1388.6 1032.83,1393.89 1034.87,1398.93 1036.91,1403.71 1038.95,1408.23 1040.99,1412.49 1043.03,1416.48 1045.07,1420.22 1047.11,1423.7 1049.15,1426.92 1051.19,1429.87 1053.23,1432.57 1055.27,1435.01 1057.31,1437.19 1059.35,1439.12 1061.39,1440.8 1063.43,1442.23 1065.47,1443.41 1067.51,1444.34 1069.55,1445.04 1071.59,1445.49 1073.63,1445.72 1075.67,1445.71 1077.71,1445.48 1079.75,1445.02 1081.79,1444.35 1083.83,1443.46 1085.87,1442.37 1087.91,1441.08 1089.95,1439.59 1091.99,1437.91 1094.03,1436.04 1096.07,1433.99 1098.11,1431.77 1100.15,1429.38 1102.19,1426.83 1104.23,1424.12 1106.27,1421.27 1108.31,1418.27 1110.35,1415.13 1112.39,1411.86 1114.43,1408.47 1116.47,1404.96 1118.51,1401.33 1120.55,1397.61 1122.59,1393.78 1124.64,1389.87 1126.68,1385.87 1128.72,1381.79 1130.76,1377.64 1132.8,1373.43 1134.84,1369.16 1136.88,1364.83 1138.92,1360.46 1140.96,1356.05 1143,1351.6 1145.04,1347.13 1147.08,1342.64 1149.12,1338.13 1151.16,1333.62 1153.2,1329.09 1155.24,1324.58 1157.28,1320.07 1159.32,1315.57 1161.36,1311.09 1163.4,1306.63 1165.44,1302.21 1167.48,1297.81 1169.52,1293.46 1171.56,1289.15 1173.6,1284.89 1175.64,1280.68 1177.68,1276.52 1179.72,1272.43 1181.76,1268.4 1183.8,1264.44 1185.84,1260.55 1187.88,1256.74 1189.92,1253 1191.96,1249.35 1194,1245.79 1196.04,1242.31 1198.08,1238.92 1200.12,1235.63 1202.16,1232.43 1204.2,1229.33 1206.24,1226.33 1208.28,1223.43 1210.32,1220.63 1212.36,1217.95 1214.4,1215.36 1216.44,1212.89 1218.48,1210.53 1220.52,1208.27 1222.56,1206.13 1224.6,1204.1 1226.64,1202.18 1228.68,1200.38 1230.72,1198.69 1232.76,1197.11 1234.8,1195.64 1236.84,1194.29 1238.88,1193.05 1240.92,1191.93 1242.96,1190.92 1245.01,1190.01 1247.05,1189.22 1249.09,1188.54 1251.13,1187.97 1253.17,1187.5 1255.21,1187.14 1257.25,1186.89 1259.29,1186.74 1261.33,1186.69 1263.37,1186.75 1265.41,1186.9 1267.45,1187.15 1269.49,1187.49 1271.53,1187.93 1273.57,1188.46 1275.61,1189.08 1277.65,1189.78 1279.69,1190.57 1281.73,1191.44 1283.77,1192.4 1285.81,1193.43 1287.85,1194.54 1289.89,1195.71 1291.93,1196.96 1293.97,1198.28 1296.01,1199.67 1298.05,1201.11 1300.09,1202.62 1302.13,1204.18 1304.17,1205.8 1306.21,1207.47 1308.25,1209.18 1310.29,1210.95 1312.33,1212.76 1314.37,1214.61 1316.41,1216.49 1318.45,1218.42 1320.49,1220.37 1322.53,1222.36 1324.57,1224.37 1326.61,1226.41 1328.65,1228.47 1330.69,1230.54 1332.73,1232.64 1334.77,1234.74 1336.81,1236.86 1338.85,1238.98 1340.89,1241.11 1342.93,1243.25 1344.97,1245.38 1347.01,1247.51 1349.05,1249.63 1351.09,1251.75 1353.13,1253.85 1355.17,1255.95 1357.21,1258.02 1359.25,1260.08 1361.29,1262.12 1363.33,1264.13 1365.38,1266.12 1367.42,1268.08 1369.46,1270 1371.5,1271.9 1373.54,1273.76 1375.58,1275.58 1377.62,1277.36 1379.66,1279.09 1381.7,1280.79 1383.74,1282.43 1385.78,1284.02 1387.82,1285.56 1389.86,1287.05 1391.9,1288.48 1393.94,1289.85 1395.98,1291.16 1398.02,1292.41 1400.06,1293.59 1402.1,1294.7 1404.14,1295.75 1406.18,1296.72 1408.22,1297.62 1410.26,1298.44 1412.3,1299.18 1414.34,1299.85 1416.38,1300.43 1418.42,1300.93 1420.46,1301.35 1422.5,1301.68 1424.54,1301.92 1426.58,1302.07 1428.62,1302.13 1430.66,1302.1 1432.7,1301.98 1434.74,1301.76 1436.78,1301.44 1438.82,1301.03 1440.86,1300.52 1442.9,1299.91 1444.94,1299.2 1446.98,1298.39 1449.02,1297.48 1451.06,1296.47 1453.1,1295.36 1455.14,1294.14 1457.18,1292.83 1459.22,1291.42 1461.26,1289.9 1463.3,1288.29 1465.34,1286.57 1467.38,1284.76 1469.42,1282.85 1471.46,1280.84 1473.5,1278.74 1475.54,1276.54 1477.58,1274.25 1479.62,1271.87 1481.66,1269.41 1483.7,1266.85 1485.75,1264.22 1487.79,1261.5 1489.83,1258.7 1491.87,1255.82 1493.91,1252.88 1495.95,1249.86 1497.99,1246.78 1500.03,1243.63 1502.07,1240.43 1504.11,1237.17 1506.15,1233.85 1508.19,1230.49 1510.23,1227.09 1512.27,1223.65 1514.31,1220.17 1516.35,1216.66 1518.39,1213.13 1520.43,1209.58 1522.47,1206.01 1524.51,1202.43 1526.55,1198.85 1528.59,1195.26 1530.63,1191.68 1532.67,1188.11 1534.71,1184.56 1536.75,1181.02 1538.79,1177.51 1540.83,1174.03 1542.87,1170.58 1544.91,1167.18 1546.95,1163.82 1548.99,1160.51 1551.03,1157.25 1553.07,1154.06 1555.11,1150.93 1557.15,1147.87 1559.19,1144.88 1561.23,1141.97 1563.27,1139.15 1565.31,1136.41 1567.35,1133.75 1569.39,1131.2 1571.43,1128.73 1573.47,1126.37 1575.51,1124.11 1577.55,1121.95 1579.59,1119.9 1581.63,1117.97 1583.67,1116.14 1585.71,1114.42 1587.75,1112.82 1589.79,1111.33 1591.83,1109.96 1593.87,1108.71 1595.91,1107.57 1597.95,1106.54 1599.99,1105.64 1602.03,1104.84 1604.07,1104.16 1606.12,1103.6 1608.16,1103.14 1610.2,1102.79 1612.24,1102.55 1614.28,1102.41 1616.32,1102.37 1618.36,1102.43 1620.4,1102.59 1622.44,1102.83 1624.48,1103.16 1626.52,1103.58 1628.56,1104.07 1630.6,1104.64 1632.64,1105.27 1634.68,1105.97 1636.72,1106.73 1638.76,1107.54 1640.8,1108.4 1642.84,1109.31 1644.88,1110.25 1646.92,1111.22 1648.96,1112.22 1651,1113.24 1653.04,1114.27 1655.08,1115.31 1657.12,1116.36 1659.16,1117.4 1661.2,1118.43 1663.24,1119.45 1665.28,1120.45 1667.32,1121.42 1669.36,1122.36 1671.4,1123.26 1673.44,1124.12 1675.48,1124.94 1677.52,1125.7 1679.56,1126.41 1681.6,1127.05 1683.64,1127.63 1685.68,1128.15 1687.72,1128.59 1689.76,1128.95 1691.8,1129.24 1693.84,1129.44 1695.88,1129.56 1697.92,1129.6 1699.96,1129.55 1702,1129.4 1704.04,1129.17 1706.08,1128.84 1708.12,1128.42 1710.16,1127.91 1712.2,1127.31 1714.24,1126.61 1716.28,1125.82 1718.32,1124.94 1720.36,1123.98 1722.4,1122.92 1724.44,1121.78 1726.49,1120.56 1728.53,1119.26 1730.57,1117.88 1732.61,1116.43 1734.65,1114.91 1736.69,1113.32 1738.73,1111.67 1740.77,1109.96 1742.81,1108.19 1744.85,1106.38 1746.89,1104.53 1748.93,1102.64 1750.97,1100.71 1753.01,1098.76 1755.05,1096.78 1757.09,1094.79 1759.13,1092.78 1761.17,1090.77 1763.21,1088.77 1765.25,1086.76 1767.29,1084.78 1769.33,1082.81 1771.37,1080.86 1773.41,1078.94 1775.45,1077.06 1777.49,1075.23 1779.53,1073.44 1781.57,1071.7 1783.61,1070.02 1785.65,1068.4 1787.69,1066.85 1789.73,1065.38 1791.77,1063.98 1793.81,1062.67 1795.85,1061.44 1797.89,1060.3 1799.93,1059.25 1801.97,1058.3 1804.01,1057.46 1806.05,1056.71 1808.09,1056.07 1810.13,1055.54 1812.17,1055.12 1814.21,1054.81 1816.25,1054.62 1818.29,1054.53 1820.33,1054.56 1822.37,1054.71 1824.41,1054.97 1826.45,1055.35 1828.49,1055.84 1830.53,1056.44 1832.57,1057.16 1834.61,1057.98 1836.65,1058.91 1838.69,1059.95 1840.73,1061.1 1842.77,1062.34 1844.81,1063.68 1846.86,1065.12 1848.9,1066.65 1850.94,1068.26 1852.98,1069.96 1855.02,1071.74 1857.06,1073.59 1859.1,1075.52 1861.14,1077.5 1863.18,1079.55 1865.22,1081.66 1867.26,1083.81 1869.3,1086.01 1871.34,1088.25 1873.38,1090.53 1875.42,1092.83 1877.46,1095.15 1879.5,1097.5 1881.54,1099.85 1883.58,1102.21 1885.62,1104.57 1887.66,1106.93 1889.7,1109.28 1891.74,1111.61 1893.78,1113.91 1895.82,1116.2 1897.86,1118.45 1899.9,1120.66 1901.94,1122.84 1903.98,1124.96 1906.02,1127.04 1908.06,1129.06 1910.1,1131.02 1912.14,1132.92 1914.18,1134.75 1916.22,1136.51 1918.26,1138.2 1920.3,1139.81 1922.34,1141.34 1924.38,1142.78 1926.42,1144.15 1928.46,1145.42 1930.5,1146.61 1932.54,1147.7 1934.58,1148.7 1936.62,1149.61 1938.66,1150.43 1940.7,1151.15 1942.74,1151.78 1944.78,1152.31 1946.82,1152.75 1948.86,1153.09 1950.9,1153.34 1952.94,1153.5 1954.98,1153.56 1957.02,1153.54 1959.06,1153.43 1961.1,1153.24 1963.14,1152.96 1965.18,1152.6 1967.23,1152.16 1969.27,1151.65 1971.31,1151.06 1973.35,1150.41 1975.39,1149.68 1977.43,1148.9 1979.47,1148.06 1981.51,1147.16 1983.55,1146.21 1985.59,1145.22 1987.63,1144.18 1989.67,1143.1 1991.71,1141.99 1993.75,1140.85 1995.79,1139.68 1997.83,1138.49 1999.87,1137.29 2001.91,1136.07 2003.95,1134.84 2005.99,1133.62 2008.03,1132.39 2010.07,1131.17 2012.11,1129.96 2014.15,1128.77 2016.19,1127.6 2018.23,1126.44 2020.27,1125.32 2022.31,1124.23 2024.35,1123.18 2026.39,1122.16 2028.43,1121.19 2030.47,1120.27 2032.51,1119.39 2034.55,1118.57 2036.59,1117.81 2038.63,1117.11 2040.67,1116.47 2042.71,1115.9 2044.75,1115.4 2046.79,1114.97 2048.83,1114.61 2050.87,1114.32 2052.91,1114.12 2054.95,1113.99 2056.99,1113.95 2059.03,1113.98 2061.07,1114.1 2063.11,1114.3 2065.15,1114.58 2067.19,1114.95 2069.23,1115.41 2071.27,1115.94 2073.31,1116.57 2075.35,1117.27 2077.39,1118.07 2079.43,1118.94 2081.47,1119.9 2083.51,1120.93 2085.55,1122.05 2087.6,1123.24 2089.64,1124.52 2091.68,1125.86 2093.72,1127.28 2095.76,1128.77 2097.8,1130.33 2099.84,1131.95 2101.88,1133.64 2103.92,1135.39 2105.96,1137.2 2108,1139.06 2110.04,1140.97 2112.08,1142.94 2114.12,1144.95 2116.16,1147 2118.2,1149.09 2120.24,1151.22 2122.28,1153.38 2124.32,1155.57 2126.36,1157.78 2128.4,1160.02 2130.44,1162.27 2132.48,1164.54 2134.52,1166.82 2136.56,1169.11 2138.6,1171.4 2140.64,1173.69 2142.68,1175.98 2144.72,1178.26 2146.76,1180.53 2148.8,1182.79 2150.84,1185.03 2152.88,1187.25 2154.92,1189.44 2156.96,1191.61 2159,1193.75 2161.04,1195.85 2163.08,1197.92 2165.12,1199.95 2167.16,1201.94 2169.2,1203.88 2171.24,1205.77 2173.28,1207.62 2175.32,1209.42 2177.36,1211.16 2179.4,1212.84 2181.44,1214.47 2183.48,1216.04 2185.52,1217.55 2187.56,1219 2189.6,1220.38 2191.64,1221.69 2193.68,1222.94 2195.72,1224.13 2197.76,1225.24 2199.8,1226.29 2201.84,1227.27 2203.88,1228.18 2205.92,1229.02 2207.97,1229.79 2210.01,1230.49 2212.05,1231.12 2214.09,1231.69 2216.13,1232.18 2218.17,1232.61 2220.21,1232.97 2222.25,1233.27 2224.29,1233.5 2226.33,1233.67 2228.37,1233.77 2230.41,1233.82 2232.45,1233.8 2234.49,1233.73 2236.53,1233.6 2238.57,1233.42 2240.61,1233.18 2242.65,1232.89 2244.69,1232.56 2246.73,1232.18 2248.77,1231.75 2250.81,1231.29 2252.85,1230.78 2254.89,1230.24 2256.93,1229.67 2258.97,1229.06 2261.01,1228.42 2263.05,1227.76 2265.09,1227.08 2267.13,1226.37 2269.17,1225.64 2271.21,1224.9 2273.25,1224.15 2275.29,1223.39 2277.33,1222.62 2279.37,1221.84 2281.41,1221.06 2283.45,1220.29 2285.49,1219.52 2287.53,1218.75 2289.57,1217.99 2291.61,1217.25 "/>
<path clip-path="url(#clip750)" d="M2012.27 198.898 L2280.74 198.898 L2280.74 95.2176 L2012.27 95.2176  Z" fill="#ffffff" fill-rule="evenodd" fill-opacity="1"/>
<polyline clip-path="url(#clip750)" style="stroke:#000000; stroke-linecap:round; stroke-linejoin:round; stroke-width:4; stroke-opacity:1; fill:none" points="2012.27,198.898 2280.74,198.898 2280.74,95.2176 2012.27,95.2176 2012.27,198.898 "/>
<polyline clip-path="url(#clip750)" style="stroke:#009af9; stroke-linecap:round; stroke-linejoin:round; stroke-width:4; stroke-opacity:1; fill:none" points="2036.27,147.058 2180.3,147.058 "/>
<path clip-path="url(#clip750)" d="M2218.15 166.745 Q2216.34 171.375 2214.63 172.787 Q2212.92 174.199 2210.05 174.199 L2206.65 174.199 L2206.65 170.634 L2209.15 170.634 Q2210.9 170.634 2211.88 169.8 Q2212.85 168.967 2214.03 165.865 L2214.79 163.921 L2204.31 138.412 L2208.82 138.412 L2216.92 158.689 L2225.02 138.412 L2229.54 138.412 L2218.15 166.745 Z" fill="#000000" fill-rule="evenodd" fill-opacity="1" /><path clip-path="url(#clip750)" d="M2236.83 160.402 L2244.47 160.402 L2244.47 134.037 L2236.16 135.703 L2236.16 131.444 L2244.42 129.778 L2249.1 129.778 L2249.1 160.402 L2256.74 160.402 L2256.74 164.338 L2236.83 164.338 L2236.83 160.402 Z" fill="#000000" fill-rule="evenodd" fill-opacity="1" /></svg>
