<?xml version="1.0" encoding="utf-8"?>
<svg xmlns="http://www.w3.org/2000/svg" xmlns:xlink="http://www.w3.org/1999/xlink" width="600" height="400" viewBox="0 0 2400 1600">
<defs>
  <clipPath id="clip150">
    <rect x="0" y="0" width="2400" height="1600"/>
  </clipPath>
</defs>
<path clip-path="url(#clip150)" d="M0 1600 L2400 1600 L2400 0 L0 0  Z" fill="#ffffff" fill-rule="evenodd" fill-opacity="1"/>
<defs>
  <clipPath id="clip151">
    <rect x="480" y="0" width="1681" height="1600"/>
  </clipPath>
</defs>
<path clip-path="url(#clip150)" d="M192.941 1474.16 L1873.86 1474.16 L1873.86 47.2441 L192.941 47.2441  Z" fill="#ffffff" fill-rule="evenodd" fill-opacity="1"/>
<defs>
  <clipPath id="clip152">
    <rect x="192" y="47" width="1682" height="1428"/>
  </clipPath>
</defs>
<polyline clip-path="url(#clip152)" style="stroke:#000000; stroke-linecap:round; stroke-linejoin:round; stroke-width:2; stroke-opacity:0.1; fill:none" points="693.591,1474.16 693.591,47.2441 "/>
<polyline clip-path="url(#clip152)" style="stroke:#000000; stroke-linecap:round; stroke-linejoin:round; stroke-width:2; stroke-opacity:0.1; fill:none" points="1259.94,1474.16 1259.94,47.2441 "/>
<polyline clip-path="url(#clip152)" style="stroke:#000000; stroke-linecap:round; stroke-linejoin:round; stroke-width:2; stroke-opacity:0.1; fill:none" points="1826.28,1474.16 1826.28,47.2441 "/>
<polyline clip-path="url(#clip150)" style="stroke:#000000; stroke-linecap:round; stroke-linejoin:round; stroke-width:4; stroke-opacity:1; fill:none" points="192.941,1474.16 1873.86,1474.16 "/>
<polyline clip-path="url(#clip150)" style="stroke:#000000; stroke-linecap:round; stroke-linejoin:round; stroke-width:4; stroke-opacity:1; fill:none" points="693.591,1474.16 693.591,1455.27 "/>
<polyline clip-path="url(#clip150)" style="stroke:#000000; stroke-linecap:round; stroke-linejoin:round; stroke-width:4; stroke-opacity:1; fill:none" points="1259.94,1474.16 1259.94,1455.27 "/>
<polyline clip-path="url(#clip150)" style="stroke:#000000; stroke-linecap:round; stroke-linejoin:round; stroke-width:4; stroke-opacity:1; fill:none" points="1826.28,1474.16 1826.28,1455.27 "/>
<path clip-path="url(#clip150)" d="M658.573 1548.29 L666.212 1548.29 L666.212 1521.92 L657.902 1523.59 L657.902 1519.33 L666.166 1517.66 L670.842 1517.66 L670.842 1548.29 L678.481 1548.29 L678.481 1552.22 L658.573 1552.22 L658.573 1548.29 Z" fill="#000000" fill-rule="evenodd" fill-opacity="1" /><path clip-path="url(#clip150)" d="M697.925 1520.74 Q694.314 1520.74 692.485 1524.31 Q690.68 1527.85 690.68 1534.98 Q690.68 1542.09 692.485 1545.65 Q694.314 1549.19 697.925 1549.19 Q701.559 1549.19 703.365 1545.65 Q705.193 1542.09 705.193 1534.98 Q705.193 1527.85 703.365 1524.31 Q701.559 1520.74 697.925 1520.74 M697.925 1517.04 Q703.735 1517.04 706.791 1521.65 Q709.869 1526.23 709.869 1534.98 Q709.869 1543.71 706.791 1548.31 Q703.735 1552.9 697.925 1552.9 Q692.115 1552.9 689.036 1548.31 Q685.981 1543.71 685.981 1534.98 Q685.981 1526.23 689.036 1521.65 Q692.115 1517.04 697.925 1517.04 Z" fill="#000000" fill-rule="evenodd" fill-opacity="1" /><path clip-path="url(#clip150)" d="M719.574 1499.24 Q716.64 1499.24 715.154 1502.13 Q713.687 1505.01 713.687 1510.8 Q713.687 1516.58 715.154 1519.47 Q716.64 1522.35 719.574 1522.35 Q722.527 1522.35 723.994 1519.47 Q725.48 1516.58 725.48 1510.8 Q725.48 1505.01 723.994 1502.13 Q722.527 1499.24 719.574 1499.24 M719.574 1496.23 Q724.295 1496.23 726.778 1499.97 Q729.279 1503.69 729.279 1510.8 Q729.279 1517.89 726.778 1521.64 Q724.295 1525.36 719.574 1525.36 Q714.853 1525.36 712.352 1521.64 Q709.869 1517.89 709.869 1510.8 Q709.869 1503.69 712.352 1499.97 Q714.853 1496.23 719.574 1496.23 Z" fill="#000000" fill-rule="evenodd" fill-opacity="1" /><path clip-path="url(#clip150)" d="M1225.54 1548.29 L1233.18 1548.29 L1233.18 1521.92 L1224.87 1523.59 L1224.87 1519.33 L1233.13 1517.66 L1237.81 1517.66 L1237.81 1548.29 L1245.45 1548.29 L1245.45 1552.22 L1225.54 1552.22 L1225.54 1548.29 Z" fill="#000000" fill-rule="evenodd" fill-opacity="1" /><path clip-path="url(#clip150)" d="M1264.89 1520.74 Q1261.28 1520.74 1259.45 1524.31 Q1257.65 1527.85 1257.65 1534.98 Q1257.65 1542.09 1259.45 1545.65 Q1261.28 1549.19 1264.89 1549.19 Q1268.53 1549.19 1270.33 1545.65 Q1272.16 1542.09 1272.16 1534.98 Q1272.16 1527.85 1270.33 1524.31 Q1268.53 1520.74 1264.89 1520.74 M1264.89 1517.04 Q1270.7 1517.04 1273.76 1521.65 Q1276.84 1526.23 1276.84 1534.98 Q1276.84 1543.71 1273.76 1548.31 Q1270.7 1552.9 1264.89 1552.9 Q1259.08 1552.9 1256 1548.31 Q1252.95 1543.71 1252.95 1534.98 Q1252.95 1526.23 1256 1521.65 Q1259.08 1517.04 1264.89 1517.04 Z" fill="#000000" fill-rule="evenodd" fill-opacity="1" /><path clip-path="url(#clip150)" d="M1278.02 1496.73 L1292.94 1496.73 L1292.94 1499.93 L1281.5 1499.93 L1281.5 1506.82 Q1282.33 1506.53 1283.16 1506.4 Q1283.98 1506.25 1284.81 1506.25 Q1289.51 1506.25 1292.26 1508.83 Q1295 1511.4 1295 1515.81 Q1295 1520.34 1292.18 1522.86 Q1289.36 1525.36 1284.23 1525.36 Q1282.46 1525.36 1280.62 1525.06 Q1278.79 1524.76 1276.84 1524.16 L1276.84 1520.34 Q1278.53 1521.26 1280.33 1521.71 Q1282.14 1522.16 1284.15 1522.16 Q1287.41 1522.16 1289.31 1520.45 Q1291.21 1518.74 1291.21 1515.81 Q1291.21 1512.87 1289.31 1511.16 Q1287.41 1509.45 1284.15 1509.45 Q1282.63 1509.45 1281.11 1509.79 Q1279.6 1510.13 1278.02 1510.84 L1278.02 1496.73 Z" fill="#000000" fill-rule="evenodd" fill-opacity="1" /><path clip-path="url(#clip150)" d="M1779.86 1548.29 L1787.5 1548.29 L1787.5 1521.92 L1779.19 1523.59 L1779.19 1519.33 L1787.45 1517.66 L1792.13 1517.66 L1792.13 1548.29 L1799.77 1548.29 L1799.77 1552.22 L1779.86 1552.22 L1779.86 1548.29 Z" fill="#000000" fill-rule="evenodd" fill-opacity="1" /><path clip-path="url(#clip150)" d="M1819.21 1520.74 Q1815.6 1520.74 1813.77 1524.31 Q1811.96 1527.85 1811.96 1534.98 Q1811.96 1542.09 1813.77 1545.65 Q1815.6 1549.19 1819.21 1549.19 Q1822.84 1549.19 1824.65 1545.65 Q1826.48 1542.09 1826.48 1534.98 Q1826.48 1527.85 1824.65 1524.31 Q1822.84 1520.74 1819.21 1520.74 M1819.21 1517.04 Q1825.02 1517.04 1828.08 1521.65 Q1831.15 1526.23 1831.15 1534.98 Q1831.15 1543.71 1828.08 1548.31 Q1825.02 1552.9 1819.21 1552.9 Q1813.4 1552.9 1810.32 1548.31 Q1807.27 1543.71 1807.27 1534.98 Q1807.27 1526.23 1810.32 1521.65 Q1813.4 1517.04 1819.21 1517.04 Z" fill="#000000" fill-rule="evenodd" fill-opacity="1" /><path clip-path="url(#clip150)" d="M1831.7 1521.62 L1837.91 1521.62 L1837.91 1500.19 L1831.15 1501.55 L1831.15 1498.09 L1837.87 1496.73 L1841.67 1496.73 L1841.67 1521.62 L1847.87 1521.62 L1847.87 1524.81 L1831.7 1524.81 L1831.7 1521.62 Z" fill="#000000" fill-rule="evenodd" fill-opacity="1" /><path clip-path="url(#clip150)" d="M1863.67 1499.24 Q1860.74 1499.24 1859.25 1502.13 Q1857.79 1505.01 1857.79 1510.8 Q1857.79 1516.58 1859.25 1519.47 Q1860.74 1522.35 1863.67 1522.35 Q1866.63 1522.35 1868.09 1519.47 Q1869.58 1516.58 1869.58 1510.8 Q1869.58 1505.01 1868.09 1502.13 Q1866.63 1499.24 1863.67 1499.24 M1863.67 1496.23 Q1868.39 1496.23 1870.88 1499.97 Q1873.38 1503.69 1873.38 1510.8 Q1873.38 1517.89 1870.88 1521.64 Q1868.39 1525.36 1863.67 1525.36 Q1858.95 1525.36 1856.45 1521.64 Q1853.97 1517.89 1853.97 1510.8 Q1853.97 1503.69 1856.45 1499.97 Q1858.95 1496.23 1863.67 1496.23 Z" fill="#000000" fill-rule="evenodd" fill-opacity="1" /><polyline clip-path="url(#clip152)" style="stroke:#000000; stroke-linecap:round; stroke-linejoin:round; stroke-width:2; stroke-opacity:0.1; fill:none" points="192.941,1346.06 1873.86,1346.06 "/>
<polyline clip-path="url(#clip152)" style="stroke:#000000; stroke-linecap:round; stroke-linejoin:round; stroke-width:2; stroke-opacity:0.1; fill:none" points="192.941,926.586 1873.86,926.586 "/>
<polyline clip-path="url(#clip152)" style="stroke:#000000; stroke-linecap:round; stroke-linejoin:round; stroke-width:2; stroke-opacity:0.1; fill:none" points="192.941,507.107 1873.86,507.107 "/>
<polyline clip-path="url(#clip152)" style="stroke:#000000; stroke-linecap:round; stroke-linejoin:round; stroke-width:2; stroke-opacity:0.1; fill:none" points="192.941,87.6286 1873.86,87.6286 "/>
<polyline clip-path="url(#clip150)" style="stroke:#000000; stroke-linecap:round; stroke-linejoin:round; stroke-width:4; stroke-opacity:1; fill:none" points="192.941,1474.16 192.941,47.2441 "/>
<polyline clip-path="url(#clip150)" style="stroke:#000000; stroke-linecap:round; stroke-linejoin:round; stroke-width:4; stroke-opacity:1; fill:none" points="192.941,1346.06 207.648,1346.06 "/>
<polyline clip-path="url(#clip150)" style="stroke:#000000; stroke-linecap:round; stroke-linejoin:round; stroke-width:4; stroke-opacity:1; fill:none" points="192.941,926.586 207.648,926.586 "/>
<polyline clip-path="url(#clip150)" style="stroke:#000000; stroke-linecap:round; stroke-linejoin:round; stroke-width:4; stroke-opacity:1; fill:none" points="192.941,507.107 207.648,507.107 "/>
<polyline clip-path="url(#clip150)" style="stroke:#000000; stroke-linecap:round; stroke-linejoin:round; stroke-width:4; stroke-opacity:1; fill:none" points="192.941,87.6286 207.648,87.6286 "/>
<path clip-path="url(#clip150)" d="M50.9921 1346.52 L80.6679 1346.52 L80.6679 1350.45 L50.9921 1350.45 L50.9921 1346.52 Z" fill="#000000" fill-rule="evenodd" fill-opacity="1" /><path clip-path="url(#clip150)" d="M100.76 1331.86 Q97.1493 1331.86 95.3206 1335.43 Q93.515 1338.97 93.515 1346.1 Q93.515 1353.21 95.3206 1356.77 Q97.1493 1360.31 100.76 1360.31 Q104.395 1360.31 106.2 1356.77 Q108.029 1353.21 108.029 1346.1 Q108.029 1338.97 106.2 1335.43 Q104.395 1331.86 100.76 1331.86 M100.76 1328.16 Q106.571 1328.16 109.626 1332.77 Q112.705 1337.35 112.705 1346.1 Q112.705 1354.83 109.626 1359.43 Q106.571 1364.02 100.76 1364.02 Q94.9502 1364.02 91.8715 1359.43 Q88.816 1354.83 88.816 1346.1 Q88.816 1337.35 91.8715 1332.77 Q94.9502 1328.16 100.76 1328.16 Z" fill="#000000" fill-rule="evenodd" fill-opacity="1" /><path clip-path="url(#clip150)" d="M120.922 1357.47 L125.807 1357.47 L125.807 1363.34 L120.922 1363.34 L120.922 1357.47 Z" fill="#000000" fill-rule="evenodd" fill-opacity="1" /><path clip-path="url(#clip150)" d="M136.038 1328.78 L154.394 1328.78 L154.394 1332.72 L140.32 1332.72 L140.32 1341.19 Q141.339 1340.84 142.357 1340.68 Q143.376 1340.5 144.394 1340.5 Q150.181 1340.5 153.561 1343.67 Q156.941 1346.84 156.941 1352.26 Q156.941 1357.84 153.468 1360.94 Q149.996 1364.02 143.677 1364.02 Q141.501 1364.02 139.232 1363.65 Q136.987 1363.28 134.58 1362.53 L134.58 1357.84 Q136.663 1358.97 138.885 1359.53 Q141.107 1360.08 143.584 1360.08 Q147.589 1360.08 149.927 1357.97 Q152.265 1355.87 152.265 1352.26 Q152.265 1348.65 149.927 1346.54 Q147.589 1344.43 143.584 1344.43 Q141.709 1344.43 139.834 1344.85 Q137.982 1345.27 136.038 1346.15 L136.038 1328.78 Z" fill="#000000" fill-rule="evenodd" fill-opacity="1" /><path clip-path="url(#clip150)" d="M99.765 912.385 Q96.1539 912.385 94.3252 915.95 Q92.5197 919.491 92.5197 926.621 Q92.5197 933.727 94.3252 937.292 Q96.1539 940.834 99.765 940.834 Q103.399 940.834 105.205 937.292 Q107.033 933.727 107.033 926.621 Q107.033 919.491 105.205 915.95 Q103.399 912.385 99.765 912.385 M99.765 908.681 Q105.575 908.681 108.631 913.287 Q111.709 917.871 111.709 926.621 Q111.709 935.348 108.631 939.954 Q105.575 944.537 99.765 944.537 Q93.9549 944.537 90.8762 939.954 Q87.8206 935.348 87.8206 926.621 Q87.8206 917.871 90.8762 913.287 Q93.9549 908.681 99.765 908.681 Z" fill="#000000" fill-rule="evenodd" fill-opacity="1" /><path clip-path="url(#clip150)" d="M119.927 937.986 L124.811 937.986 L124.811 943.866 L119.927 943.866 L119.927 937.986 Z" fill="#000000" fill-rule="evenodd" fill-opacity="1" /><path clip-path="url(#clip150)" d="M144.996 912.385 Q141.385 912.385 139.556 915.95 Q137.751 919.491 137.751 926.621 Q137.751 933.727 139.556 937.292 Q141.385 940.834 144.996 940.834 Q148.63 940.834 150.436 937.292 Q152.265 933.727 152.265 926.621 Q152.265 919.491 150.436 915.95 Q148.63 912.385 144.996 912.385 M144.996 908.681 Q150.806 908.681 153.862 913.287 Q156.941 917.871 156.941 926.621 Q156.941 935.348 153.862 939.954 Q150.806 944.537 144.996 944.537 Q139.186 944.537 136.107 939.954 Q133.052 935.348 133.052 926.621 Q133.052 917.871 136.107 913.287 Q139.186 908.681 144.996 908.681 Z" fill="#000000" fill-rule="evenodd" fill-opacity="1" /><path clip-path="url(#clip150)" d="M100.76 492.906 Q97.1493 492.906 95.3206 496.471 Q93.515 500.012 93.515 507.142 Q93.515 514.249 95.3206 517.813 Q97.1493 521.355 100.76 521.355 Q104.395 521.355 106.2 517.813 Q108.029 514.249 108.029 507.142 Q108.029 500.012 106.2 496.471 Q104.395 492.906 100.76 492.906 M100.76 489.202 Q106.571 489.202 109.626 493.809 Q112.705 498.392 112.705 507.142 Q112.705 515.869 109.626 520.475 Q106.571 525.059 100.76 525.059 Q94.9502 525.059 91.8715 520.475 Q88.816 515.869 88.816 507.142 Q88.816 498.392 91.8715 493.809 Q94.9502 489.202 100.76 489.202 Z" fill="#000000" fill-rule="evenodd" fill-opacity="1" /><path clip-path="url(#clip150)" d="M120.922 518.508 L125.807 518.508 L125.807 524.387 L120.922 524.387 L120.922 518.508 Z" fill="#000000" fill-rule="evenodd" fill-opacity="1" /><path clip-path="url(#clip150)" d="M136.038 489.827 L154.394 489.827 L154.394 493.763 L140.32 493.763 L140.32 502.235 Q141.339 501.887 142.357 501.725 Q143.376 501.54 144.394 501.54 Q150.181 501.54 153.561 504.712 Q156.941 507.883 156.941 513.299 Q156.941 518.878 153.468 521.98 Q149.996 525.059 143.677 525.059 Q141.501 525.059 139.232 524.688 Q136.987 524.318 134.58 523.577 L134.58 518.878 Q136.663 520.012 138.885 520.568 Q141.107 521.123 143.584 521.123 Q147.589 521.123 149.927 519.017 Q152.265 516.911 152.265 513.299 Q152.265 509.688 149.927 507.582 Q147.589 505.475 143.584 505.475 Q141.709 505.475 139.834 505.892 Q137.982 506.309 136.038 507.188 L136.038 489.827 Z" fill="#000000" fill-rule="evenodd" fill-opacity="1" /><path clip-path="url(#clip150)" d="M90.5752 100.973 L98.2141 100.973 L98.2141 74.6079 L89.904 76.2745 L89.904 72.0153 L98.1678 70.3486 L102.844 70.3486 L102.844 100.973 L110.483 100.973 L110.483 104.909 L90.5752 104.909 L90.5752 100.973 Z" fill="#000000" fill-rule="evenodd" fill-opacity="1" /><path clip-path="url(#clip150)" d="M119.927 99.029 L124.811 99.029 L124.811 104.909 L119.927 104.909 L119.927 99.029 Z" fill="#000000" fill-rule="evenodd" fill-opacity="1" /><path clip-path="url(#clip150)" d="M144.996 73.4273 Q141.385 73.4273 139.556 76.9921 Q137.751 80.5338 137.751 87.6634 Q137.751 94.7698 139.556 98.3346 Q141.385 101.876 144.996 101.876 Q148.63 101.876 150.436 98.3346 Q152.265 94.7698 152.265 87.6634 Q152.265 80.5338 150.436 76.9921 Q148.63 73.4273 144.996 73.4273 M144.996 69.7236 Q150.806 69.7236 153.862 74.3301 Q156.941 78.9134 156.941 87.6634 Q156.941 96.3902 153.862 100.997 Q150.806 105.58 144.996 105.58 Q139.186 105.58 136.107 100.997 Q133.052 96.3902 133.052 87.6634 Q133.052 78.9134 136.107 74.3301 Q139.186 69.7236 144.996 69.7236 Z" fill="#000000" fill-rule="evenodd" fill-opacity="1" /><circle clip-path="url(#clip152)" cx="240.514" cy="87.6286" r="7.2" fill="#009af9" fill-rule="evenodd" fill-opacity="1" stroke="#000000" stroke-opacity="1" stroke-width="3.2"/>
<circle clip-path="url(#clip152)" cx="281.174" cy="87.6286" r="7.2" fill="#009af9" fill-rule="evenodd" fill-opacity="1" stroke="#000000" stroke-opacity="1" stroke-width="3.2"/>
<circle clip-path="url(#clip152)" cx="321.835" cy="87.6286" r="7.2" fill="#009af9" fill-rule="evenodd" fill-opacity="1" stroke="#000000" stroke-opacity="1" stroke-width="3.2"/>
<circle clip-path="url(#clip152)" cx="362.496" cy="87.6286" r="7.2" fill="#009af9" fill-rule="evenodd" fill-opacity="1" stroke="#000000" stroke-opacity="1" stroke-width="3.2"/>
<circle clip-path="url(#clip152)" cx="403.157" cy="87.6286" r="7.2" fill="#009af9" fill-rule="evenodd" fill-opacity="1" stroke="#000000" stroke-opacity="1" stroke-width="3.2"/>
<circle clip-path="url(#clip152)" cx="443.817" cy="87.6286" r="7.2" fill="#009af9" fill-rule="evenodd" fill-opacity="1" stroke="#000000" stroke-opacity="1" stroke-width="3.2"/>
<circle clip-path="url(#clip152)" cx="484.478" cy="87.6286" r="7.2" fill="#009af9" fill-rule="evenodd" fill-opacity="1" stroke="#000000" stroke-opacity="1" stroke-width="3.2"/>
<circle clip-path="url(#clip152)" cx="525.139" cy="87.6286" r="7.2" fill="#009af9" fill-rule="evenodd" fill-opacity="1" stroke="#000000" stroke-opacity="1" stroke-width="3.2"/>
<circle clip-path="url(#clip152)" cx="565.8" cy="87.6286" r="7.2" fill="#009af9" fill-rule="evenodd" fill-opacity="1" stroke="#000000" stroke-opacity="1" stroke-width="3.2"/>
<circle clip-path="url(#clip152)" cx="606.46" cy="87.6286" r="7.2" fill="#009af9" fill-rule="evenodd" fill-opacity="1" stroke="#000000" stroke-opacity="1" stroke-width="3.2"/>
<circle clip-path="url(#clip152)" cx="647.121" cy="87.6286" r="7.2" fill="#009af9" fill-rule="evenodd" fill-opacity="1" stroke="#000000" stroke-opacity="1" stroke-width="3.2"/>
<circle clip-path="url(#clip152)" cx="687.782" cy="87.6286" r="7.2" fill="#009af9" fill-rule="evenodd" fill-opacity="1" stroke="#000000" stroke-opacity="1" stroke-width="3.2"/>
<circle clip-path="url(#clip152)" cx="728.443" cy="87.6287" r="7.2" fill="#009af9" fill-rule="evenodd" fill-opacity="1" stroke="#000000" stroke-opacity="1" stroke-width="3.2"/>
<circle clip-path="url(#clip152)" cx="769.103" cy="87.6509" r="7.2" fill="#009af9" fill-rule="evenodd" fill-opacity="1" stroke="#000000" stroke-opacity="1" stroke-width="3.2"/>
<circle clip-path="url(#clip152)" cx="809.764" cy="87.7712" r="7.2" fill="#009af9" fill-rule="evenodd" fill-opacity="1" stroke="#000000" stroke-opacity="1" stroke-width="3.2"/>
<circle clip-path="url(#clip152)" cx="850.425" cy="87.8229" r="7.2" fill="#009af9" fill-rule="evenodd" fill-opacity="1" stroke="#000000" stroke-opacity="1" stroke-width="3.2"/>
<circle clip-path="url(#clip152)" cx="891.086" cy="87.9435" r="7.2" fill="#009af9" fill-rule="evenodd" fill-opacity="1" stroke="#000000" stroke-opacity="1" stroke-width="3.2"/>
<circle clip-path="url(#clip152)" cx="931.746" cy="88.2103" r="7.2" fill="#009af9" fill-rule="evenodd" fill-opacity="1" stroke="#000000" stroke-opacity="1" stroke-width="3.2"/>
<circle clip-path="url(#clip152)" cx="972.407" cy="88.4777" r="7.2" fill="#009af9" fill-rule="evenodd" fill-opacity="1" stroke="#000000" stroke-opacity="1" stroke-width="3.2"/>
<circle clip-path="url(#clip152)" cx="1013.07" cy="88.607" r="7.2" fill="#009af9" fill-rule="evenodd" fill-opacity="1" stroke="#000000" stroke-opacity="1" stroke-width="3.2"/>
<circle clip-path="url(#clip152)" cx="1053.73" cy="88.6678" r="7.2" fill="#009af9" fill-rule="evenodd" fill-opacity="1" stroke="#000000" stroke-opacity="1" stroke-width="3.2"/>
<circle clip-path="url(#clip152)" cx="1094.39" cy="88.454" r="7.2" fill="#009af9" fill-rule="evenodd" fill-opacity="1" stroke="#000000" stroke-opacity="1" stroke-width="3.2"/>
<circle clip-path="url(#clip152)" cx="1135.05" cy="88.6699" r="7.2" fill="#009af9" fill-rule="evenodd" fill-opacity="1" stroke="#000000" stroke-opacity="1" stroke-width="3.2"/>
<circle clip-path="url(#clip152)" cx="1175.71" cy="88.7829" r="7.2" fill="#009af9" fill-rule="evenodd" fill-opacity="1" stroke="#000000" stroke-opacity="1" stroke-width="3.2"/>
<circle clip-path="url(#clip152)" cx="1216.37" cy="88.83" r="7.2" fill="#009af9" fill-rule="evenodd" fill-opacity="1" stroke="#000000" stroke-opacity="1" stroke-width="3.2"/>
<circle clip-path="url(#clip152)" cx="1257.03" cy="88.6855" r="7.2" fill="#009af9" fill-rule="evenodd" fill-opacity="1" stroke="#000000" stroke-opacity="1" stroke-width="3.2"/>
<circle clip-path="url(#clip152)" cx="1297.69" cy="88.8137" r="7.2" fill="#009af9" fill-rule="evenodd" fill-opacity="1" stroke="#000000" stroke-opacity="1" stroke-width="3.2"/>
<circle clip-path="url(#clip152)" cx="1338.35" cy="89.2133" r="7.2" fill="#009af9" fill-rule="evenodd" fill-opacity="1" stroke="#000000" stroke-opacity="1" stroke-width="3.2"/>
<circle clip-path="url(#clip152)" cx="1379.01" cy="88.7324" r="7.2" fill="#009af9" fill-rule="evenodd" fill-opacity="1" stroke="#000000" stroke-opacity="1" stroke-width="3.2"/>
<circle clip-path="url(#clip152)" cx="1419.68" cy="88.5993" r="7.2" fill="#009af9" fill-rule="evenodd" fill-opacity="1" stroke="#000000" stroke-opacity="1" stroke-width="3.2"/>
<circle clip-path="url(#clip152)" cx="1460.34" cy="88.7767" r="7.2" fill="#009af9" fill-rule="evenodd" fill-opacity="1" stroke="#000000" stroke-opacity="1" stroke-width="3.2"/>
<circle clip-path="url(#clip152)" cx="1501" cy="88.8919" r="7.2" fill="#009af9" fill-rule="evenodd" fill-opacity="1" stroke="#000000" stroke-opacity="1" stroke-width="3.2"/>
<circle clip-path="url(#clip152)" cx="1541.66" cy="89.036" r="7.2" fill="#009af9" fill-rule="evenodd" fill-opacity="1" stroke="#000000" stroke-opacity="1" stroke-width="3.2"/>
<circle clip-path="url(#clip152)" cx="1582.32" cy="88.5627" r="7.2" fill="#009af9" fill-rule="evenodd" fill-opacity="1" stroke="#000000" stroke-opacity="1" stroke-width="3.2"/>
<circle clip-path="url(#clip152)" cx="1622.98" cy="88.9767" r="7.2" fill="#009af9" fill-rule="evenodd" fill-opacity="1" stroke="#000000" stroke-opacity="1" stroke-width="3.2"/>
<circle clip-path="url(#clip152)" cx="1663.64" cy="89.0206" r="7.2" fill="#009af9" fill-rule="evenodd" fill-opacity="1" stroke="#000000" stroke-opacity="1" stroke-width="3.2"/>
<circle clip-path="url(#clip152)" cx="1704.3" cy="89.0489" r="7.2" fill="#009af9" fill-rule="evenodd" fill-opacity="1" stroke="#000000" stroke-opacity="1" stroke-width="3.2"/>
<circle clip-path="url(#clip152)" cx="1744.96" cy="88.5759" r="7.2" fill="#009af9" fill-rule="evenodd" fill-opacity="1" stroke="#000000" stroke-opacity="1" stroke-width="3.2"/>
<circle clip-path="url(#clip152)" cx="1785.62" cy="88.9527" r="7.2" fill="#009af9" fill-rule="evenodd" fill-opacity="1" stroke="#000000" stroke-opacity="1" stroke-width="3.2"/>
<circle clip-path="url(#clip152)" cx="1826.28" cy="89.0679" r="7.2" fill="#009af9" fill-rule="evenodd" fill-opacity="1" stroke="#000000" stroke-opacity="1" stroke-width="3.2"/>
<circle clip-path="url(#clip152)" cx="240.514" cy="87.6286" r="7.2" fill="#e26f46" fill-rule="evenodd" fill-opacity="1" stroke="#000000" stroke-opacity="1" stroke-width="3.2"/>
<circle clip-path="url(#clip152)" cx="281.174" cy="87.6286" r="7.2" fill="#e26f46" fill-rule="evenodd" fill-opacity="1" stroke="#000000" stroke-opacity="1" stroke-width="3.2"/>
<circle clip-path="url(#clip152)" cx="321.835" cy="87.6286" r="7.2" fill="#e26f46" fill-rule="evenodd" fill-opacity="1" stroke="#000000" stroke-opacity="1" stroke-width="3.2"/>
<circle clip-path="url(#clip152)" cx="362.496" cy="87.6286" r="7.2" fill="#e26f46" fill-rule="evenodd" fill-opacity="1" stroke="#000000" stroke-opacity="1" stroke-width="3.2"/>
<circle clip-path="url(#clip152)" cx="403.157" cy="87.6286" r="7.2" fill="#e26f46" fill-rule="evenodd" fill-opacity="1" stroke="#000000" stroke-opacity="1" stroke-width="3.2"/>
<circle clip-path="url(#clip152)" cx="443.817" cy="87.6286" r="7.2" fill="#e26f46" fill-rule="evenodd" fill-opacity="1" stroke="#000000" stroke-opacity="1" stroke-width="3.2"/>
<circle clip-path="url(#clip152)" cx="484.478" cy="87.6286" r="7.2" fill="#e26f46" fill-rule="evenodd" fill-opacity="1" stroke="#000000" stroke-opacity="1" stroke-width="3.2"/>
<circle clip-path="url(#clip152)" cx="525.139" cy="87.6286" r="7.2" fill="#e26f46" fill-rule="evenodd" fill-opacity="1" stroke="#000000" stroke-opacity="1" stroke-width="3.2"/>
<circle clip-path="url(#clip152)" cx="565.8" cy="87.6286" r="7.2" fill="#e26f46" fill-rule="evenodd" fill-opacity="1" stroke="#000000" stroke-opacity="1" stroke-width="3.2"/>
<circle clip-path="url(#clip152)" cx="606.46" cy="87.6286" r="7.2" fill="#e26f46" fill-rule="evenodd" fill-opacity="1" stroke="#000000" stroke-opacity="1" stroke-width="3.2"/>
<circle clip-path="url(#clip152)" cx="647.121" cy="87.6286" r="7.2" fill="#e26f46" fill-rule="evenodd" fill-opacity="1" stroke="#000000" stroke-opacity="1" stroke-width="3.2"/>
<circle clip-path="url(#clip152)" cx="687.782" cy="87.6286" r="7.2" fill="#e26f46" fill-rule="evenodd" fill-opacity="1" stroke="#000000" stroke-opacity="1" stroke-width="3.2"/>
<circle clip-path="url(#clip152)" cx="728.443" cy="87.6292" r="7.2" fill="#e26f46" fill-rule="evenodd" fill-opacity="1" stroke="#000000" stroke-opacity="1" stroke-width="3.2"/>
<circle clip-path="url(#clip152)" cx="769.103" cy="88.5102" r="7.2" fill="#e26f46" fill-rule="evenodd" fill-opacity="1" stroke="#000000" stroke-opacity="1" stroke-width="3.2"/>
<circle clip-path="url(#clip152)" cx="809.764" cy="101.676" r="7.2" fill="#e26f46" fill-rule="evenodd" fill-opacity="1" stroke="#000000" stroke-opacity="1" stroke-width="3.2"/>
<circle clip-path="url(#clip152)" cx="850.425" cy="131.98" r="7.2" fill="#e26f46" fill-rule="evenodd" fill-opacity="1" stroke="#000000" stroke-opacity="1" stroke-width="3.2"/>
<circle clip-path="url(#clip152)" cx="891.086" cy="176.408" r="7.2" fill="#e26f46" fill-rule="evenodd" fill-opacity="1" stroke="#000000" stroke-opacity="1" stroke-width="3.2"/>
<circle clip-path="url(#clip152)" cx="931.746" cy="178.664" r="7.2" fill="#e26f46" fill-rule="evenodd" fill-opacity="1" stroke="#000000" stroke-opacity="1" stroke-width="3.2"/>
<circle clip-path="url(#clip152)" cx="972.407" cy="167.702" r="7.2" fill="#e26f46" fill-rule="evenodd" fill-opacity="1" stroke="#000000" stroke-opacity="1" stroke-width="3.2"/>
<circle clip-path="url(#clip152)" cx="1013.07" cy="189.373" r="7.2" fill="#e26f46" fill-rule="evenodd" fill-opacity="1" stroke="#000000" stroke-opacity="1" stroke-width="3.2"/>
<circle clip-path="url(#clip152)" cx="1053.73" cy="189.152" r="7.2" fill="#e26f46" fill-rule="evenodd" fill-opacity="1" stroke="#000000" stroke-opacity="1" stroke-width="3.2"/>
<circle clip-path="url(#clip152)" cx="1094.39" cy="175.539" r="7.2" fill="#e26f46" fill-rule="evenodd" fill-opacity="1" stroke="#000000" stroke-opacity="1" stroke-width="3.2"/>
<circle clip-path="url(#clip152)" cx="1135.05" cy="193.183" r="7.2" fill="#e26f46" fill-rule="evenodd" fill-opacity="1" stroke="#000000" stroke-opacity="1" stroke-width="3.2"/>
<circle clip-path="url(#clip152)" cx="1175.71" cy="190.862" r="7.2" fill="#e26f46" fill-rule="evenodd" fill-opacity="1" stroke="#000000" stroke-opacity="1" stroke-width="3.2"/>
<circle clip-path="url(#clip152)" cx="1216.37" cy="165.5" r="7.2" fill="#e26f46" fill-rule="evenodd" fill-opacity="1" stroke="#000000" stroke-opacity="1" stroke-width="3.2"/>
<circle clip-path="url(#clip152)" cx="1257.03" cy="171.571" r="7.2" fill="#e26f46" fill-rule="evenodd" fill-opacity="1" stroke="#000000" stroke-opacity="1" stroke-width="3.2"/>
<circle clip-path="url(#clip152)" cx="1297.69" cy="186.409" r="7.2" fill="#e26f46" fill-rule="evenodd" fill-opacity="1" stroke="#000000" stroke-opacity="1" stroke-width="3.2"/>
<circle clip-path="url(#clip152)" cx="1338.35" cy="196.697" r="7.2" fill="#e26f46" fill-rule="evenodd" fill-opacity="1" stroke="#000000" stroke-opacity="1" stroke-width="3.2"/>
<circle clip-path="url(#clip152)" cx="1379.01" cy="181.947" r="7.2" fill="#e26f46" fill-rule="evenodd" fill-opacity="1" stroke="#000000" stroke-opacity="1" stroke-width="3.2"/>
<circle clip-path="url(#clip152)" cx="1419.68" cy="186.914" r="7.2" fill="#e26f46" fill-rule="evenodd" fill-opacity="1" stroke="#000000" stroke-opacity="1" stroke-width="3.2"/>
<circle clip-path="url(#clip152)" cx="1460.34" cy="184.069" r="7.2" fill="#e26f46" fill-rule="evenodd" fill-opacity="1" stroke="#000000" stroke-opacity="1" stroke-width="3.2"/>
<circle clip-path="url(#clip152)" cx="1501" cy="191.001" r="7.2" fill="#e26f46" fill-rule="evenodd" fill-opacity="1" stroke="#000000" stroke-opacity="1" stroke-width="3.2"/>
<circle clip-path="url(#clip152)" cx="1541.66" cy="182.015" r="7.2" fill="#e26f46" fill-rule="evenodd" fill-opacity="1" stroke="#000000" stroke-opacity="1" stroke-width="3.2"/>
<circle clip-path="url(#clip152)" cx="1582.32" cy="158.703" r="7.2" fill="#e26f46" fill-rule="evenodd" fill-opacity="1" stroke="#000000" stroke-opacity="1" stroke-width="3.2"/>
<circle clip-path="url(#clip152)" cx="1622.98" cy="176.805" r="7.2" fill="#e26f46" fill-rule="evenodd" fill-opacity="1" stroke="#000000" stroke-opacity="1" stroke-width="3.2"/>
<circle clip-path="url(#clip152)" cx="1663.64" cy="185.257" r="7.2" fill="#e26f46" fill-rule="evenodd" fill-opacity="1" stroke="#000000" stroke-opacity="1" stroke-width="3.2"/>
<circle clip-path="url(#clip152)" cx="1704.3" cy="198.66" r="7.2" fill="#e26f46" fill-rule="evenodd" fill-opacity="1" stroke="#000000" stroke-opacity="1" stroke-width="3.2"/>
<circle clip-path="url(#clip152)" cx="1744.96" cy="182.703" r="7.2" fill="#e26f46" fill-rule="evenodd" fill-opacity="1" stroke="#000000" stroke-opacity="1" stroke-width="3.2"/>
<circle clip-path="url(#clip152)" cx="1785.62" cy="192.337" r="7.2" fill="#e26f46" fill-rule="evenodd" fill-opacity="1" stroke="#000000" stroke-opacity="1" stroke-width="3.2"/>
<circle clip-path="url(#clip152)" cx="1826.28" cy="191.12" r="7.2" fill="#e26f46" fill-rule="evenodd" fill-opacity="1" stroke="#000000" stroke-opacity="1" stroke-width="3.2"/>
<circle clip-path="url(#clip152)" cx="240.514" cy="87.6286" r="7.2" fill="#3da44d" fill-rule="evenodd" fill-opacity="1" stroke="#000000" stroke-opacity="1" stroke-width="3.2"/>
<circle clip-path="url(#clip152)" cx="281.174" cy="87.6286" r="7.2" fill="#3da44d" fill-rule="evenodd" fill-opacity="1" stroke="#000000" stroke-opacity="1" stroke-width="3.2"/>
<circle clip-path="url(#clip152)" cx="321.835" cy="87.6286" r="7.2" fill="#3da44d" fill-rule="evenodd" fill-opacity="1" stroke="#000000" stroke-opacity="1" stroke-width="3.2"/>
<circle clip-path="url(#clip152)" cx="362.496" cy="87.6286" r="7.2" fill="#3da44d" fill-rule="evenodd" fill-opacity="1" stroke="#000000" stroke-opacity="1" stroke-width="3.2"/>
<circle clip-path="url(#clip152)" cx="403.157" cy="87.6286" r="7.2" fill="#3da44d" fill-rule="evenodd" fill-opacity="1" stroke="#000000" stroke-opacity="1" stroke-width="3.2"/>
<circle clip-path="url(#clip152)" cx="443.817" cy="87.6286" r="7.2" fill="#3da44d" fill-rule="evenodd" fill-opacity="1" stroke="#000000" stroke-opacity="1" stroke-width="3.2"/>
<circle clip-path="url(#clip152)" cx="484.478" cy="87.6286" r="7.2" fill="#3da44d" fill-rule="evenodd" fill-opacity="1" stroke="#000000" stroke-opacity="1" stroke-width="3.2"/>
<circle clip-path="url(#clip152)" cx="525.139" cy="87.6286" r="7.2" fill="#3da44d" fill-rule="evenodd" fill-opacity="1" stroke="#000000" stroke-opacity="1" stroke-width="3.2"/>
<circle clip-path="url(#clip152)" cx="565.8" cy="87.6286" r="7.2" fill="#3da44d" fill-rule="evenodd" fill-opacity="1" stroke="#000000" stroke-opacity="1" stroke-width="3.2"/>
<circle clip-path="url(#clip152)" cx="606.46" cy="87.6286" r="7.2" fill="#3da44d" fill-rule="evenodd" fill-opacity="1" stroke="#000000" stroke-opacity="1" stroke-width="3.2"/>
<circle clip-path="url(#clip152)" cx="647.121" cy="87.6286" r="7.2" fill="#3da44d" fill-rule="evenodd" fill-opacity="1" stroke="#000000" stroke-opacity="1" stroke-width="3.2"/>
<circle clip-path="url(#clip152)" cx="687.782" cy="87.6286" r="7.2" fill="#3da44d" fill-rule="evenodd" fill-opacity="1" stroke="#000000" stroke-opacity="1" stroke-width="3.2"/>
<circle clip-path="url(#clip152)" cx="728.443" cy="87.6287" r="7.2" fill="#3da44d" fill-rule="evenodd" fill-opacity="1" stroke="#000000" stroke-opacity="1" stroke-width="3.2"/>
<circle clip-path="url(#clip152)" cx="769.103" cy="90.5961" r="7.2" fill="#3da44d" fill-rule="evenodd" fill-opacity="1" stroke="#000000" stroke-opacity="1" stroke-width="3.2"/>
<circle clip-path="url(#clip152)" cx="809.764" cy="1433.78" r="7.2" fill="#3da44d" fill-rule="evenodd" fill-opacity="1" stroke="#000000" stroke-opacity="1" stroke-width="3.2"/>
<circle clip-path="url(#clip152)" cx="850.425" cy="190.694" r="7.2" fill="#3da44d" fill-rule="evenodd" fill-opacity="1" stroke="#000000" stroke-opacity="1" stroke-width="3.2"/>
<circle clip-path="url(#clip152)" cx="891.086" cy="504.07" r="7.2" fill="#3da44d" fill-rule="evenodd" fill-opacity="1" stroke="#000000" stroke-opacity="1" stroke-width="3.2"/>
<circle clip-path="url(#clip152)" cx="931.746" cy="95.5075" r="7.2" fill="#3da44d" fill-rule="evenodd" fill-opacity="1" stroke="#000000" stroke-opacity="1" stroke-width="3.2"/>
<circle clip-path="url(#clip152)" cx="972.407" cy="93.4228" r="7.2" fill="#3da44d" fill-rule="evenodd" fill-opacity="1" stroke="#000000" stroke-opacity="1" stroke-width="3.2"/>
<circle clip-path="url(#clip152)" cx="1013.07" cy="602.565" r="7.2" fill="#3da44d" fill-rule="evenodd" fill-opacity="1" stroke="#000000" stroke-opacity="1" stroke-width="3.2"/>
<circle clip-path="url(#clip152)" cx="1053.73" cy="689.521" r="7.2" fill="#3da44d" fill-rule="evenodd" fill-opacity="1" stroke="#000000" stroke-opacity="1" stroke-width="3.2"/>
<circle clip-path="url(#clip152)" cx="1094.39" cy="319.238" r="7.2" fill="#3da44d" fill-rule="evenodd" fill-opacity="1" stroke="#000000" stroke-opacity="1" stroke-width="3.2"/>
<circle clip-path="url(#clip152)" cx="1135.05" cy="89.4726" r="7.2" fill="#3da44d" fill-rule="evenodd" fill-opacity="1" stroke="#000000" stroke-opacity="1" stroke-width="3.2"/>
<circle clip-path="url(#clip152)" cx="1175.71" cy="605.845" r="7.2" fill="#3da44d" fill-rule="evenodd" fill-opacity="1" stroke="#000000" stroke-opacity="1" stroke-width="3.2"/>
<circle clip-path="url(#clip152)" cx="1216.37" cy="848.029" r="7.2" fill="#3da44d" fill-rule="evenodd" fill-opacity="1" stroke="#000000" stroke-opacity="1" stroke-width="3.2"/>
<circle clip-path="url(#clip152)" cx="1257.03" cy="362.752" r="7.2" fill="#3da44d" fill-rule="evenodd" fill-opacity="1" stroke="#000000" stroke-opacity="1" stroke-width="3.2"/>
<circle clip-path="url(#clip152)" cx="1297.69" cy="115.369" r="7.2" fill="#3da44d" fill-rule="evenodd" fill-opacity="1" stroke="#000000" stroke-opacity="1" stroke-width="3.2"/>
<circle clip-path="url(#clip152)" cx="1338.35" cy="115.291" r="7.2" fill="#3da44d" fill-rule="evenodd" fill-opacity="1" stroke="#000000" stroke-opacity="1" stroke-width="3.2"/>
<circle clip-path="url(#clip152)" cx="1379.01" cy="980.387" r="7.2" fill="#3da44d" fill-rule="evenodd" fill-opacity="1" stroke="#000000" stroke-opacity="1" stroke-width="3.2"/>
<circle clip-path="url(#clip152)" cx="1419.68" cy="290.564" r="7.2" fill="#3da44d" fill-rule="evenodd" fill-opacity="1" stroke="#000000" stroke-opacity="1" stroke-width="3.2"/>
<circle clip-path="url(#clip152)" cx="1460.34" cy="376.541" r="7.2" fill="#3da44d" fill-rule="evenodd" fill-opacity="1" stroke="#000000" stroke-opacity="1" stroke-width="3.2"/>
<circle clip-path="url(#clip152)" cx="1501" cy="610.141" r="7.2" fill="#3da44d" fill-rule="evenodd" fill-opacity="1" stroke="#000000" stroke-opacity="1" stroke-width="3.2"/>
<circle clip-path="url(#clip152)" cx="1541.66" cy="630.156" r="7.2" fill="#3da44d" fill-rule="evenodd" fill-opacity="1" stroke="#000000" stroke-opacity="1" stroke-width="3.2"/>
<circle clip-path="url(#clip152)" cx="1582.32" cy="622.167" r="7.2" fill="#3da44d" fill-rule="evenodd" fill-opacity="1" stroke="#000000" stroke-opacity="1" stroke-width="3.2"/>
<circle clip-path="url(#clip152)" cx="1622.98" cy="162.568" r="7.2" fill="#3da44d" fill-rule="evenodd" fill-opacity="1" stroke="#000000" stroke-opacity="1" stroke-width="3.2"/>
<circle clip-path="url(#clip152)" cx="1663.64" cy="223.53" r="7.2" fill="#3da44d" fill-rule="evenodd" fill-opacity="1" stroke="#000000" stroke-opacity="1" stroke-width="3.2"/>
<circle clip-path="url(#clip152)" cx="1704.3" cy="377.139" r="7.2" fill="#3da44d" fill-rule="evenodd" fill-opacity="1" stroke="#000000" stroke-opacity="1" stroke-width="3.2"/>
<circle clip-path="url(#clip152)" cx="1744.96" cy="116.503" r="7.2" fill="#3da44d" fill-rule="evenodd" fill-opacity="1" stroke="#000000" stroke-opacity="1" stroke-width="3.2"/>
<circle clip-path="url(#clip152)" cx="1785.62" cy="93.6799" r="7.2" fill="#3da44d" fill-rule="evenodd" fill-opacity="1" stroke="#000000" stroke-opacity="1" stroke-width="3.2"/>
<circle clip-path="url(#clip152)" cx="1826.28" cy="246.549" r="7.2" fill="#3da44d" fill-rule="evenodd" fill-opacity="1" stroke="#000000" stroke-opacity="1" stroke-width="3.2"/>
<path clip-path="url(#clip150)" d="M1945.85 302.168 L2352.76 302.168 L2352.76 94.8081 L1945.85 94.8081  Z" fill="#ffffff" fill-rule="evenodd" fill-opacity="1"/>
<polyline clip-path="url(#clip150)" style="stroke:#000000; stroke-linecap:round; stroke-linejoin:round; stroke-width:4; stroke-opacity:1; fill:none" points="1945.85,302.168 2352.76,302.168 2352.76,94.8081 1945.85,94.8081 1945.85,302.168 "/>
<circle clip-path="url(#clip150)" cx="2041.84" cy="146.648" r="23.04" fill="#009af9" fill-rule="evenodd" fill-opacity="1" stroke="#000000" stroke-opacity="1" stroke-width="10.24"/>
<path clip-path="url(#clip150)" d="M2153.67 133.975 L2147.32 151.174 L2160.03 151.174 L2153.67 133.975 M2151.03 129.368 L2156.33 129.368 L2169.5 163.928 L2164.64 163.928 L2161.49 155.062 L2145.91 155.062 L2142.76 163.928 L2137.83 163.928 L2151.03 129.368 Z" fill="#000000" fill-rule="evenodd" fill-opacity="1" /><path clip-path="url(#clip150)" d="M2174.55 129.368 L2179.22 129.368 L2179.22 159.993 L2196.05 159.993 L2196.05 163.928 L2174.55 163.928 L2174.55 129.368 Z" fill="#000000" fill-rule="evenodd" fill-opacity="1" /><circle clip-path="url(#clip150)" cx="2041.84" cy="198.488" r="23.04" fill="#e26f46" fill-rule="evenodd" fill-opacity="1" stroke="#000000" stroke-opacity="1" stroke-width="10.24"/>
<path clip-path="url(#clip150)" d="M2137.83 181.208 L2144.8 181.208 L2153.62 204.727 L2162.49 181.208 L2169.45 181.208 L2169.45 215.768 L2164.89 215.768 L2164.89 185.421 L2155.98 209.125 L2151.28 209.125 L2142.37 185.421 L2142.37 215.768 L2137.83 215.768 L2137.83 181.208 Z" fill="#000000" fill-rule="evenodd" fill-opacity="1" /><path clip-path="url(#clip150)" d="M2183.41 199.264 L2183.41 211.926 L2190.91 211.926 Q2194.68 211.926 2196.49 210.375 Q2198.32 208.801 2198.32 205.583 Q2198.32 202.342 2196.49 200.814 Q2194.68 199.264 2190.91 199.264 L2183.41 199.264 M2183.41 185.051 L2183.41 195.467 L2190.33 195.467 Q2193.76 195.467 2195.43 194.194 Q2197.12 192.898 2197.12 190.259 Q2197.12 187.643 2195.43 186.347 Q2193.76 185.051 2190.33 185.051 L2183.41 185.051 M2178.74 181.208 L2190.68 181.208 Q2196.03 181.208 2198.92 183.43 Q2201.81 185.653 2201.81 189.75 Q2201.81 192.921 2200.33 194.796 Q2198.85 196.671 2195.98 197.134 Q2199.43 197.875 2201.33 200.236 Q2203.25 202.574 2203.25 206.092 Q2203.25 210.722 2200.1 213.245 Q2196.95 215.768 2191.14 215.768 L2178.74 215.768 L2178.74 181.208 Z" fill="#000000" fill-rule="evenodd" fill-opacity="1" /><path clip-path="url(#clip150)" d="M2211.26 181.208 L2215.93 181.208 L2215.93 211.833 L2232.76 211.833 L2232.76 215.768 L2211.26 215.768 L2211.26 181.208 Z" fill="#000000" fill-rule="evenodd" fill-opacity="1" /><circle clip-path="url(#clip150)" cx="2041.84" cy="250.328" r="23.04" fill="#3da44d" fill-rule="evenodd" fill-opacity="1" stroke="#000000" stroke-opacity="1" stroke-width="10.24"/>
<path clip-path="url(#clip150)" d="M2137.83 233.048 L2167.07 233.048 L2167.07 236.983 L2154.8 236.983 L2154.8 267.608 L2150.1 267.608 L2150.1 236.983 L2137.83 236.983 L2137.83 233.048 Z" fill="#000000" fill-rule="evenodd" fill-opacity="1" /><path clip-path="url(#clip150)" d="M2192.95 251.96 L2192.95 267.608 L2188.69 267.608 L2188.69 252.099 Q2188.69 248.418 2187.25 246.59 Q2185.82 244.761 2182.95 244.761 Q2179.5 244.761 2177.51 246.96 Q2175.52 249.159 2175.52 252.955 L2175.52 267.608 L2171.24 267.608 L2171.24 231.59 L2175.52 231.59 L2175.52 245.71 Q2177.05 243.372 2179.11 242.215 Q2181.19 241.057 2183.9 241.057 Q2188.37 241.057 2190.66 243.835 Q2192.95 246.59 2192.95 251.96 Z" fill="#000000" fill-rule="evenodd" fill-opacity="1" /><path clip-path="url(#clip150)" d="M2223.62 253.58 L2223.62 255.664 L2204.04 255.664 Q2204.31 260.062 2206.68 262.377 Q2209.06 264.668 2213.3 264.668 Q2215.75 264.668 2218.04 264.066 Q2220.36 263.465 2222.62 262.261 L2222.62 266.289 Q2220.33 267.261 2217.93 267.77 Q2215.52 268.279 2213.04 268.279 Q2206.84 268.279 2203.2 264.668 Q2199.59 261.057 2199.59 254.9 Q2199.59 248.534 2203.02 244.807 Q2206.47 241.057 2212.3 241.057 Q2217.53 241.057 2220.56 244.437 Q2223.62 247.793 2223.62 253.58 M2219.36 252.33 Q2219.31 248.835 2217.39 246.752 Q2215.49 244.668 2212.35 244.668 Q2208.78 244.668 2206.63 246.682 Q2204.5 248.696 2204.18 252.354 L2219.36 252.33 Z" fill="#000000" fill-rule="evenodd" fill-opacity="1" /><path clip-path="url(#clip150)" d="M2245.63 245.664 Q2244.92 245.247 2244.06 245.062 Q2243.23 244.854 2242.21 244.854 Q2238.6 244.854 2236.65 247.215 Q2234.73 249.553 2234.73 253.951 L2234.73 267.608 L2230.45 267.608 L2230.45 241.682 L2234.73 241.682 L2234.73 245.71 Q2236.07 243.349 2238.23 242.215 Q2240.38 241.057 2243.46 241.057 Q2243.9 241.057 2244.43 241.127 Q2244.96 241.173 2245.61 241.289 L2245.63 245.664 Z" fill="#000000" fill-rule="evenodd" fill-opacity="1" /><path clip-path="url(#clip150)" d="M2269.45 246.659 Q2271.05 243.789 2273.27 242.423 Q2275.49 241.057 2278.5 241.057 Q2282.55 241.057 2284.75 243.905 Q2286.95 246.729 2286.95 251.96 L2286.95 267.608 L2282.67 267.608 L2282.67 252.099 Q2282.67 248.372 2281.35 246.567 Q2280.03 244.761 2277.32 244.761 Q2274.01 244.761 2272.09 246.96 Q2270.17 249.159 2270.17 252.955 L2270.17 267.608 L2265.89 267.608 L2265.89 252.099 Q2265.89 248.349 2264.57 246.567 Q2263.25 244.761 2260.49 244.761 Q2257.23 244.761 2255.31 246.983 Q2253.39 249.182 2253.39 252.955 L2253.39 267.608 L2249.11 267.608 L2249.11 241.682 L2253.39 241.682 L2253.39 245.71 Q2254.85 243.326 2256.88 242.192 Q2258.92 241.057 2261.72 241.057 Q2264.55 241.057 2266.51 242.493 Q2268.5 243.928 2269.45 246.659 Z" fill="#000000" fill-rule="evenodd" fill-opacity="1" /><path clip-path="url(#clip150)" d="M2307.23 254.576 Q2302.07 254.576 2300.08 255.756 Q2298.09 256.937 2298.09 259.784 Q2298.09 262.053 2299.57 263.395 Q2301.07 264.715 2303.64 264.715 Q2307.18 264.715 2309.31 262.215 Q2311.47 259.691 2311.47 255.525 L2311.47 254.576 L2307.23 254.576 M2315.73 252.817 L2315.73 267.608 L2311.47 267.608 L2311.47 263.673 Q2310.01 266.034 2307.83 267.168 Q2305.66 268.279 2302.51 268.279 Q2298.53 268.279 2296.17 266.057 Q2293.83 263.812 2293.83 260.062 Q2293.83 255.687 2296.74 253.465 Q2299.68 251.242 2305.49 251.242 L2311.47 251.242 L2311.47 250.826 Q2311.47 247.886 2309.52 246.289 Q2307.6 244.668 2304.11 244.668 Q2301.88 244.668 2299.78 245.201 Q2297.67 245.733 2295.73 246.798 L2295.73 242.863 Q2298.06 241.96 2300.26 241.52 Q2302.46 241.057 2304.55 241.057 Q2310.17 241.057 2312.95 243.974 Q2315.73 246.891 2315.73 252.817 Z" fill="#000000" fill-rule="evenodd" fill-opacity="1" /><path clip-path="url(#clip150)" d="M2324.5 231.59 L2328.76 231.59 L2328.76 267.608 L2324.5 267.608 L2324.5 231.59 Z" fill="#000000" fill-rule="evenodd" fill-opacity="1" /></svg>
